<svg width="68" height="258" viewBox="0 0 68 258" fill="none" xmlns="http://www.w3.org/2000/svg">
<path fill-rule="evenodd" clip-rule="evenodd" d="M26.4657 251.238C26.2657 251.438 25.8657 251.838 25.7657 252.238C25.5657 253.038 26.5657 254.438 27.0657 254.138C27.5657 253.938 28.1657 253.238 28.2657 252.738C28.3657 251.938 27.7657 251.338 26.4657 251.238Z" fill="#FBB040"/>
<path fill-rule="evenodd" clip-rule="evenodd" d="M12.2657 230.438C10.5657 229.938 9.46569 230.338 9.16569 231.338C8.96569 232.138 9.36569 232.638 10.1657 232.838C12.0657 233.038 11.2657 231.138 12.2657 230.438Z" fill="#FBB040"/>
<path fill-rule="evenodd" clip-rule="evenodd" d="M26.9657 225.238C27.5657 225.838 27.9657 226.238 28.4657 226.738C28.8657 226.338 29.4657 226.038 29.5657 225.538C29.7657 224.538 29.0657 223.338 28.4657 223.538C27.9657 223.738 27.5657 224.438 26.9657 225.238Z" fill="#FBB040"/>
<path fill-rule="evenodd" clip-rule="evenodd" d="M15.7657 245.138C14.5657 245.038 13.6657 245.038 12.8657 245.038C12.8657 245.538 12.7657 246.238 13.0657 246.438C13.4657 246.738 14.2657 246.938 14.6657 246.738C15.0657 246.538 15.2657 245.838 15.7657 245.138Z" fill="#FBB040"/>
<path fill-rule="evenodd" clip-rule="evenodd" d="M25.4657 166.438C25.5657 167.138 25.5657 167.938 25.6657 168.738C23.8657 167.738 23.7657 167.538 24.0657 165.838C24.2657 164.138 23.0657 163.138 22.2657 161.938C22.2657 161.838 21.8657 161.838 21.7657 161.938C21.6657 162.038 21.6657 162.338 21.6657 162.438C21.9657 162.838 22.2657 163.238 22.5657 163.738C22.9657 164.438 23.1657 165.238 23.4657 166.038C23.2657 166.138 23.1657 166.238 22.9657 166.438C21.6657 165.638 20.4657 164.838 19.0657 163.938C19.0657 165.538 20.5657 165.738 21.1657 166.938C20.0657 166.738 19.1657 166.638 18.1657 166.438C18.1657 166.638 18.0657 166.838 18.0657 166.938C18.9657 167.238 19.8657 167.538 20.7657 167.638C22.2657 167.938 23.7657 168.338 24.8657 169.838C22.9657 170.038 21.1657 170.338 19.3657 169.638C19.6657 170.538 20.3657 171.038 21.2657 171.038C22.1657 171.138 23.0657 171.138 23.8657 171.038C25.5657 170.838 26.6657 171.838 27.5657 173.038C27.9657 173.638 28.3657 174.338 28.8657 174.938C29.0657 175.138 29.5657 175.238 29.8657 175.338C29.8657 174.938 29.9657 174.538 29.7657 174.238C28.9657 173.038 28.0657 171.738 27.0657 170.638C26.2657 169.638 26.3657 168.538 26.2657 167.338C26.2657 166.938 26.0657 166.638 25.9657 166.238C25.7657 166.338 25.6657 166.338 25.4657 166.438Z" fill="black"/>
<path fill-rule="evenodd" clip-rule="evenodd" d="M19.1657 198.738C20.2657 197.038 21.6657 196.338 23.8657 197.038C22.9657 197.738 22.2657 198.438 21.5657 199.038C20.4657 199.938 19.4657 200.938 19.2657 202.538C19.2657 202.938 18.7657 203.338 18.6657 203.838C18.5657 204.038 18.6657 204.438 18.8657 204.638C18.9657 204.738 19.3657 204.838 19.4657 204.838C19.6657 204.638 19.8657 204.338 19.8657 204.138C19.9657 202.038 21.2657 200.538 22.7657 199.338C22.8657 199.238 23.1657 199.338 23.3657 199.338C23.0657 200.838 22.7657 202.338 22.4657 203.838C22.5657 203.838 22.6657 203.938 22.8657 203.938C23.0657 203.638 23.2657 203.338 23.3657 202.938C23.7657 201.738 24.3657 200.538 24.3657 199.338C24.3657 197.438 25.9657 197.138 26.9657 196.138C27.2657 195.838 27.5657 195.638 28.0657 195.238C28.5657 196.938 28.2657 198.438 27.5657 199.938C27.6657 200.038 27.7657 200.038 27.9657 200.138C28.1657 199.938 28.5657 199.638 28.6657 199.338C28.8657 198.438 29.1657 197.538 29.0657 196.638C28.7657 195.038 29.3657 193.938 30.5657 192.938C31.1657 192.338 31.6657 191.538 32.1657 190.838C32.0657 190.738 31.8657 190.538 31.7657 190.438C31.3657 190.738 31.0657 191.138 30.6657 191.438C29.8657 192.138 29.0657 192.738 28.2657 193.438C27.7657 193.938 27.2657 194.538 26.7657 195.038C25.9657 195.838 25.0657 196.238 23.8657 195.938C22.5657 195.738 21.2657 195.838 20.1657 196.738C19.6657 197.138 19.3657 197.838 18.9657 198.338C18.8657 198.538 18.9657 198.638 19.1657 198.738Z" fill="black"/>
<path fill-rule="evenodd" clip-rule="evenodd" d="M53.1657 157.538C53.1657 157.538 50.7657 158.138 50.0657 157.938C49.3657 157.738 40.1657 152.438 39.6657 152.438C39.1657 152.438 39.4657 152.238 39.5657 153.138C39.6657 154.038 40.4657 154.738 40.5657 155.138C40.6657 155.438 39.6657 155.838 39.1657 155.838C38.7657 155.838 38.6657 156.638 39.0657 157.038C39.3657 157.338 44.0657 161.338 44.3657 162.338C44.6657 163.338 47.7657 166.838 49.5657 166.438C51.3657 166.038 54.1657 163.738 54.2657 162.438C54.1657 161.038 53.9657 158.038 53.1657 157.538Z" fill="url(#paint0_linear_57_92)"/>
<path fill-rule="evenodd" clip-rule="evenodd" d="M31.2657 170.538C31.3657 168.838 31.5657 167.138 31.3657 165.438C30.9657 162.138 30.2657 158.938 29.8657 155.638C29.5657 152.538 30.0657 149.638 31.9657 147.038C32.6657 146.138 33.2657 145.138 33.5657 144.038C34.2657 141.838 34.7657 139.538 35.4657 137.238C35.8657 135.938 36.3657 134.438 38.2657 134.538C38.4657 134.538 38.7657 134.238 38.9657 133.938C39.4657 133.138 39.9657 132.238 40.3657 131.338C42.2657 127.838 44.8657 124.738 48.0657 122.338C50.4657 120.438 52.0657 120.738 54.0657 122.138C56.4657 123.838 55.7657 129.438 53.5657 130.738C57.5657 133.638 58.3657 136.538 57.4657 139.438C58.9657 139.338 60.3657 139.238 61.9657 139.138C61.7657 137.938 62.1657 136.938 63.2657 136.238C64.1657 135.738 65.9657 135.738 66.6657 136.538C67.5657 137.538 66.7657 138.338 66.2657 139.038C65.4657 140.138 64.5657 140.938 62.8657 140.638C61.2657 140.338 59.5657 140.538 57.8657 140.438C56.6657 140.338 56.4657 141.238 56.1657 142.038C56.9657 142.038 57.7657 141.938 58.4657 142.038C59.4657 142.138 60.1657 143.038 60.9657 143.238C61.6657 143.438 62.6657 142.338 63.5657 142.238C64.1657 142.138 65.0657 142.538 65.4657 143.038C66.0657 143.938 65.5657 145.438 64.7657 145.838C63.6657 146.438 61.4657 145.938 60.9657 145.038C59.8657 143.038 57.1657 142.538 55.6657 144.138C55.2657 144.538 55.2657 145.638 55.4657 146.338C55.5657 146.738 56.1657 147.038 56.5657 147.338C57.4657 147.838 58.4657 148.138 59.3657 148.638C60.1657 149.138 60.6657 149.538 61.5657 148.738C62.2657 148.038 63.4657 147.538 64.3657 148.438C64.8657 148.938 64.9657 149.838 64.9657 150.638C64.9657 151.038 64.4657 151.538 64.2657 151.938C63.8657 152.538 63.4657 153.338 62.6657 153.038C61.8657 152.738 60.9657 152.238 60.6657 151.538C59.8657 149.638 58.0657 149.438 56.6657 148.438C56.6657 148.838 56.7657 149.038 56.7657 149.238C56.8657 150.438 57.3657 151.838 56.9657 152.838C56.4657 154.338 55.2657 155.638 54.3657 157.138C54.2657 157.338 54.0657 157.638 54.0657 157.938C54.1657 158.938 54.5657 160.038 54.5657 161.038C54.6657 163.838 52.0657 166.638 49.2657 166.538C47.2657 166.538 45.6657 165.738 44.5657 163.938C43.0657 161.438 41.4657 158.938 38.8657 157.438C38.7657 157.338 38.2657 156.238 38.2657 156.038C38.1657 155.638 39.3657 156.638 39.5657 156.838C40.8657 157.938 42.1657 159.138 43.2657 160.338C44.2657 161.438 44.9657 162.838 45.8657 164.038C46.8657 165.238 48.2657 165.638 49.6657 165.238C51.2657 164.738 53.2657 164.338 53.3657 162.038C53.4657 161.238 53.4657 160.438 53.3657 159.738C53.0657 157.938 53.0657 158.038 51.2657 158.138C50.4657 158.238 49.4657 158.238 48.7657 157.938C46.6657 156.838 44.6657 155.638 42.5657 154.438C41.5657 153.838 40.4657 153.238 39.4657 152.738C39.3657 152.838 39.2657 152.938 39.2657 153.038C39.7657 153.438 40.2657 153.838 40.7657 154.338C41.0657 154.638 41.2657 155.138 41.5657 155.538C41.1657 155.738 40.6657 156.138 40.2657 156.138C38.6657 156.338 37.4657 155.738 36.5657 154.438C35.7657 153.338 35.0657 152.138 34.1657 150.838C33.9657 151.438 33.6657 151.738 33.6657 152.138C33.5657 156.038 33.4657 160.038 34.3657 163.938C35.0657 166.838 35.7657 169.738 35.1657 172.838C35.0657 173.138 35.0657 173.438 35.1657 173.638C35.2657 173.938 35.4657 174.238 35.6657 174.338C35.7657 174.438 36.0657 174.138 36.2657 173.938C38.2657 172.338 40.4657 171.438 42.9657 172.138C45.0657 172.738 46.5657 174.338 47.8657 175.938C49.1657 177.638 50.0657 179.638 51.2657 181.338C52.6657 183.438 54.2657 185.438 56.8657 186.338C57.0657 186.438 57.4657 186.838 57.3657 187.038C57.2657 187.338 56.9657 187.738 56.6657 187.838C53.8657 188.238 51.1657 188.738 48.3657 188.938C47.2657 189.038 46.0657 188.738 44.9657 188.438C41.9657 187.538 39.6657 185.638 37.7657 183.138C36.9657 182.138 36.0657 181.338 35.1657 180.538C35.0657 180.638 34.8657 180.638 34.7657 180.738C34.8657 183.338 34.3657 186.038 35.4657 188.538C36.9657 192.038 38.9657 195.438 39.1657 199.338C39.3657 202.438 39.3657 205.638 39.2657 208.738C39.1657 210.438 39.2657 210.638 40.7657 211.538C42.1657 212.338 43.5657 213.238 44.3657 214.738C45.8657 217.538 46.2657 220.538 46.3657 223.638C46.4657 225.638 46.6657 227.638 46.9657 229.638C47.2657 231.738 48.0657 233.738 49.9657 234.938C49.7657 235.838 49.3657 236.038 48.5657 235.638C47.9657 235.338 47.3657 235.038 46.7657 235.038C44.7657 234.838 42.7657 234.738 41.1657 233.438C39.2657 231.938 37.1657 230.638 35.8657 228.838C33.8657 226.138 33.0657 222.738 32.7657 219.338C32.4657 216.538 32.5657 213.838 34.6657 211.638C35.2657 210.938 35.7657 209.938 36.0657 208.938C36.2657 208.038 36.2657 207.138 36.1657 206.238C35.7657 203.638 35.2657 201.038 34.7657 198.338C34.5657 197.438 34.2657 196.538 33.9657 195.638C33.7657 195.638 33.6657 195.638 33.4657 195.738C33.4657 196.438 33.4657 197.238 33.3657 197.938C32.9657 200.938 31.7657 203.438 29.2657 205.138C28.5657 205.638 28.1657 206.038 28.1657 206.838C28.1657 210.538 26.5657 213.638 24.5657 216.638C23.6657 218.038 22.7657 219.438 21.6657 221.138C24.1657 220.138 24.7657 220.038 25.9657 220.938C26.7657 221.538 27.5657 222.238 28.6657 221.838C28.8657 221.738 29.1657 221.938 29.3657 222.038C30.5657 222.938 30.7657 225.938 29.6657 227.038C28.8657 227.938 27.0657 227.538 26.7657 226.338C26.5657 225.538 26.4657 224.638 26.5657 223.838C26.7657 222.838 26.2657 222.338 25.5657 221.938C24.7657 221.438 23.8657 220.738 22.8657 221.538C22.4657 221.838 21.9657 221.838 21.4657 221.938C21.3657 221.838 21.2657 221.738 21.1657 221.638C20.7657 223.338 20.0657 224.938 20.0657 226.638C20.0657 231.338 21.5657 235.538 24.7657 239.138C25.3657 239.838 25.6657 239.738 26.4657 239.338C27.5657 238.738 28.8657 238.338 30.1657 238.138C31.0657 237.938 32.0657 238.138 32.7657 238.238C33.1657 237.438 33.3657 236.438 33.8657 236.338C34.4657 236.138 35.5657 236.338 36.0657 236.838C36.7657 237.338 37.4657 238.338 37.4657 239.038C37.4657 239.938 36.7657 241.038 36.1657 241.738C35.5657 242.338 34.1657 241.538 33.5657 240.638C33.3657 240.338 33.1657 240.038 32.8657 239.838C31.2657 238.838 27.7657 239.338 26.3657 240.738C26.4657 240.838 26.4657 241.038 26.5657 241.138C28.9657 243.938 31.8657 246.038 35.0657 247.838C37.8657 249.438 40.5657 251.138 43.5657 252.238C44.1657 252.438 44.9657 253.238 45.1657 253.838C45.6657 255.338 43.7657 257.638 42.1657 257.638C41.7657 257.638 41.1657 257.438 40.8657 257.138C39.5657 256.038 39.3657 254.438 40.3657 252.238C36.7657 250.138 33.2657 248.038 29.7657 245.938C28.1657 247.738 28.4657 249.638 29.1657 251.338C29.7657 252.638 29.3657 253.338 28.7657 254.338C28.1657 255.238 27.4657 255.338 26.5657 254.938C25.1657 254.338 24.4657 251.738 25.2657 250.438C25.3657 250.238 25.6657 250.038 25.7657 250.038C27.6657 250.138 27.6657 248.738 27.9657 247.438C28.0657 247.038 28.1657 246.638 28.3657 246.338C28.9657 245.438 28.6657 244.938 27.9657 244.338C26.0657 242.338 24.1657 240.238 22.4657 238.038C21.5657 236.838 19.8657 236.338 18.7657 237.438C17.1657 238.938 15.9657 240.738 16.2657 243.138C16.3657 243.838 16.3657 244.538 16.3657 245.138C16.3657 247.238 14.6657 248.338 12.9657 247.338C12.4657 247.038 12.0657 246.238 11.8657 245.538C11.3657 243.938 12.4657 242.838 13.9657 243.438C14.8657 243.738 15.1657 243.538 15.2657 242.638C15.3657 240.538 16.2657 238.638 17.8657 237.138C18.6657 236.338 19.8657 236.038 20.9657 235.438C20.7657 234.738 20.4657 233.938 20.1657 233.038C19.8657 232.138 19.6657 231.238 19.3657 230.338C19.2657 230.038 19.0657 229.638 18.7657 229.438C17.1657 228.438 15.5657 229.038 14.0657 229.438C12.9657 229.738 12.8657 230.638 12.5657 231.538C12.2657 232.338 11.6657 233.238 10.9657 233.538C10.0657 233.938 8.36568 232.838 8.16568 231.838C7.86568 230.338 8.46569 229.338 9.76569 228.838C10.4657 228.538 11.1657 228.338 11.8657 228.938C11.9657 229.038 12.3657 229.138 12.4657 229.038C14.4657 227.838 16.5657 227.238 18.9657 228.238C18.8657 223.838 20.7657 220.338 23.1657 217.038C24.7657 214.838 26.1657 212.538 26.9657 209.938C27.3657 208.638 27.3657 207.238 27.5657 205.738C25.9657 206.238 24.5657 206.538 23.2657 207.138C19.3657 208.938 16.4657 211.738 15.5657 216.038C15.4657 216.338 15.1657 216.538 14.9657 216.738C14.7657 216.538 14.4657 216.338 14.3657 216.038C13.7657 213.738 12.9657 211.438 12.6657 209.138C11.6657 202.438 13.7657 196.738 19.2657 192.638C21.8657 190.738 24.8657 189.338 27.6657 187.538C30.4657 185.738 31.7657 183.038 31.6657 179.738C31.6657 178.938 31.2657 178.338 30.4657 178.038C29.2657 177.738 28.0657 177.238 26.7657 177.038C23.7657 176.538 21.0657 175.538 18.8657 173.538C15.7657 170.738 13.7657 167.338 12.7657 163.338C11.9657 160.238 10.7657 157.238 8.16568 155.038C7.96568 154.838 7.96569 154.338 8.06569 154.138C8.16569 154.038 8.66569 153.938 8.86569 154.038C9.56569 154.338 10.2657 154.638 10.8657 155.038C13.5657 156.838 16.2657 158.238 19.6657 158.338C20.9657 158.338 22.2657 158.838 23.3657 159.438C26.1657 160.738 27.1657 163.738 28.6657 166.138C29.5657 167.538 30.2657 169.138 31.0657 170.838C31.0657 170.938 31.2657 170.738 31.2657 170.538ZM51.6657 183.438C50.3657 181.738 49.2657 179.938 48.1657 178.038C46.9657 176.038 45.1657 174.738 43.2657 173.538C41.7657 172.638 38.2657 173.838 36.8657 175.338C36.4657 175.738 36.1657 176.638 35.3657 176.138C34.6657 175.638 33.7657 175.338 34.1657 173.938C34.9657 170.938 34.4657 167.838 33.7657 164.838C32.6657 160.638 32.7657 156.438 32.8657 152.138C32.8657 152.038 32.8657 151.838 32.9657 151.838C33.4657 151.238 33.8657 150.638 34.3657 150.038C34.8657 150.538 35.4657 150.938 35.8657 151.538C36.7657 152.938 37.4657 154.538 39.2657 155.138C39.4657 155.238 39.6657 155.138 39.9657 155.238C39.1657 154.038 38.3657 152.838 37.6657 151.738C36.1657 149.638 37.3657 147.138 39.3657 146.138C39.4657 146.038 39.6657 146.038 39.7657 145.938C40.0657 145.738 40.3657 145.438 40.8657 145.138C35.9657 143.438 36.4657 139.838 37.6657 135.938C37.4657 135.938 37.3657 135.938 37.1657 135.938C36.8657 136.538 36.4657 137.138 36.2657 137.738C35.6657 139.838 35.2657 142.038 34.6657 144.038C34.2657 145.338 33.5657 146.538 32.7657 147.638C30.5657 150.538 30.4657 153.838 31.0657 157.138C31.6657 160.838 32.5657 164.438 32.3657 168.238C32.2657 170.038 32.1657 171.838 31.9657 173.538C31.9657 173.838 31.5657 174.038 31.3657 174.338C31.1657 174.138 30.8657 173.938 30.6657 173.638C29.8657 172.038 29.1657 170.438 28.3657 168.938C27.3657 167.038 26.1657 165.138 25.1657 163.238C23.9657 160.938 21.7657 160.338 19.4657 159.938C17.5657 159.638 15.5657 159.038 13.7657 158.438C13.0657 158.238 12.5657 157.638 11.8657 157.238C11.5657 157.038 11.1657 156.938 11.0657 156.938C11.8657 159.038 12.7657 161.038 13.4657 163.138C15.1657 168.938 18.2657 173.538 24.2657 175.538C26.2657 176.238 28.4657 176.638 30.4657 177.138C31.9657 177.538 32.4657 178.038 32.6657 179.538C33.2657 183.338 31.3657 187.038 27.9657 189.038C25.2657 190.638 22.3657 192.038 19.8657 193.838C15.2657 197.238 12.9657 201.938 13.5657 207.838C13.7657 210.038 14.1657 212.138 14.4657 214.338C14.5657 214.438 14.6657 214.438 14.8657 214.538C15.0657 214.338 15.3657 214.038 15.5657 213.738C17.4657 209.538 20.7657 206.938 25.1657 205.538C26.2657 205.238 27.4657 204.838 28.5657 204.338C31.2657 202.938 32.3657 200.538 32.5657 197.738C32.7657 195.538 32.5657 193.238 32.4657 190.938C32.4657 190.738 32.6657 190.538 32.7657 190.438C32.9657 190.638 33.3657 190.738 33.4657 190.938C34.3657 193.538 35.3657 196.038 35.9657 198.638C36.5657 201.438 36.9657 204.238 37.2657 207.138C37.4657 208.938 37.1657 210.638 35.9657 212.138C34.4657 213.938 33.5657 216.038 33.8657 218.538C34.3657 222.338 35.0657 226.138 37.4657 229.138C39.3657 231.538 41.9657 233.338 45.1657 233.838C46.0657 233.938 46.8657 234.138 47.8657 234.338C47.3657 233.038 46.8657 231.938 46.5657 230.838C46.1657 228.938 45.8657 226.938 45.7657 224.938C45.6657 221.838 45.3657 218.738 44.0657 215.838C43.3657 214.338 41.9657 213.438 40.6657 212.638C38.8657 211.638 38.4657 211.238 38.6657 209.138C39.0657 205.238 39.1657 201.438 38.3657 197.538C38.0657 196.038 37.4657 194.638 36.8657 193.138C36.1657 191.538 35.1657 190.038 34.5657 188.438C34.1657 187.238 34.2657 185.938 34.1657 184.638C34.0657 182.938 34.0657 181.138 34.0657 179.338C34.0657 179.138 34.2657 178.638 34.3657 178.638C34.6657 178.538 35.1657 178.638 35.3657 178.838C36.7657 180.138 38.0657 181.338 39.3657 182.738C41.3657 185.038 43.6657 187.138 46.7657 187.638C48.3657 187.938 49.9657 187.638 51.6657 187.438C52.8657 187.338 53.9657 187.038 55.2657 186.838C53.8657 185.938 52.6657 184.838 51.6657 183.438ZM52.6657 156.738C52.8657 156.638 53.0657 156.638 53.1657 156.538C53.6657 156.238 54.1657 156.138 54.5657 155.738C54.9657 155.438 55.0657 154.838 55.3657 154.438C56.8657 152.538 56.4657 150.538 55.6657 148.538C55.2657 147.638 55.0657 146.638 54.8657 145.638C54.3657 143.838 55.3657 142.438 56.1657 140.938C56.5657 140.238 56.7657 139.538 57.1657 138.838C58.3657 136.538 54.7657 131.638 51.6657 131.938C50.3657 132.038 48.9657 132.338 47.8657 132.938C45.9657 133.938 44.1657 134.938 42.5657 136.338C40.8657 137.838 39.1657 139.638 38.8657 142.138C38.8657 142.538 39.4657 143.338 39.9657 143.538C40.9657 143.838 41.9657 143.738 42.9657 143.838C43.3657 143.938 43.7657 144.038 44.1657 144.138C43.8657 144.538 43.7657 145.038 43.3657 145.238C42.1657 145.938 40.9657 146.438 39.8657 147.238C37.4657 148.738 37.6657 150.538 40.1657 151.938C42.6657 153.338 45.0657 154.838 47.5657 156.238C48.6657 156.838 49.7657 157.138 51.0657 157.638C51.4657 157.238 52.0657 157.038 52.6657 156.738ZM45.2657 132.938C47.3657 131.738 49.3657 130.538 51.8657 130.438C53.0657 130.438 54.7657 129.138 54.8657 127.538C54.9657 125.838 55.0657 124.238 53.5657 122.938C52.5657 122.038 51.4657 121.738 50.4657 122.438C48.9657 123.338 47.3657 124.338 46.1657 125.638C44.4657 127.438 42.9657 129.438 41.6657 131.538C40.3657 133.638 39.4657 135.938 38.4657 138.138C38.2657 138.638 38.2657 139.238 38.1657 139.838C38.2657 139.838 38.3657 139.938 38.5657 139.938C39.9657 136.938 42.2657 134.638 45.2657 132.938ZM41.8657 256.838C42.5657 256.938 43.9657 255.638 43.9657 254.838C43.9657 254.138 42.8657 253.338 41.9657 253.338C41.2657 253.338 40.6657 253.938 40.6657 254.938C40.7657 255.538 40.7657 256.538 41.8657 256.838ZM35.4657 240.838C35.9657 240.638 36.3657 239.938 36.4657 239.338C36.6657 238.638 35.3657 237.538 34.6657 237.638C34.3657 237.638 34.1657 237.938 34.0657 238.038C34.0657 239.938 34.7657 241.138 35.4657 240.838ZM25.7657 252.238C25.5657 253.038 26.5657 254.438 27.0657 254.138C27.5657 253.938 28.1657 253.238 28.2657 252.738C28.3657 251.938 27.7657 251.238 26.4657 251.138C26.2657 251.438 25.8657 251.838 25.7657 252.238ZM9.16568 231.238C8.96568 232.038 9.36568 232.538 10.1657 232.738C12.0657 233.038 11.2657 231.138 12.2657 230.438C10.4657 229.938 9.36568 230.338 9.16568 231.238ZM28.4657 226.738C28.8657 226.338 29.4657 226.038 29.5657 225.538C29.7657 224.538 29.0657 223.338 28.4657 223.538C27.9657 223.738 27.6657 224.438 26.9657 225.238C27.5657 225.838 28.0657 226.238 28.4657 226.738ZM62.9657 151.938C63.5657 151.538 63.9657 150.838 64.3657 150.238C64.4657 150.038 63.6657 149.238 63.6657 149.338C62.9657 149.638 62.2657 150.138 61.2657 150.838C62.0657 151.338 62.8657 152.038 62.9657 151.938ZM63.1657 138.438C63.0657 139.438 63.6657 139.938 64.5657 139.438C65.1657 139.038 65.6657 138.438 66.2657 137.838C64.7657 136.838 63.3657 137.138 63.1657 138.438ZM12.8657 245.038C12.8657 245.538 12.7657 246.238 13.0657 246.438C13.4657 246.738 14.2657 246.938 14.6657 246.738C15.0657 246.538 15.2657 245.838 15.7657 245.138C14.4657 245.038 13.6657 245.038 12.8657 245.038ZM64.4657 144.838C64.6657 144.838 64.9657 144.438 64.9657 144.238C64.9657 144.038 64.6657 143.538 64.4657 143.638C63.7657 143.638 63.0657 143.838 62.3657 143.938C62.3657 144.138 62.3657 144.438 62.3657 144.638C63.0657 144.738 63.7657 144.838 64.4657 144.838Z" fill="black"/>
<path fill-rule="evenodd" clip-rule="evenodd" d="M51.5657 187.938C49.9657 188.038 48.2657 188.438 46.6657 188.138C43.5657 187.638 41.2657 185.538 39.2657 183.238C38.0657 181.838 36.6657 180.538 35.2657 179.338C35.0657 179.138 34.5657 179.138 34.2657 179.138C34.1657 179.138 33.9657 179.638 33.9657 179.838C33.9657 181.638 33.9657 183.338 34.0657 185.138C34.1657 186.438 34.0657 187.738 34.4657 188.938C35.0657 190.538 36.0657 192.038 36.7657 193.638C37.3657 195.038 37.9657 196.538 38.2657 198.038C39.0657 201.838 38.9657 205.738 38.5657 209.638C38.3657 211.638 38.7657 212.138 40.5657 213.138C41.9657 213.938 43.2657 214.738 43.9657 216.338C45.2657 219.238 45.5657 222.238 45.6657 225.438C45.7657 227.438 46.0657 229.438 46.4657 231.338C46.6657 232.438 47.2657 233.538 47.7657 234.838C46.7657 234.638 45.9657 234.538 45.0657 234.338C41.8657 233.838 39.3657 232.138 37.3657 229.638C34.9657 226.538 34.2657 222.838 33.7657 219.038C33.4657 216.538 34.3657 214.538 35.8657 212.638C37.0657 211.138 37.3657 209.438 37.1657 207.638C36.8657 204.838 36.5657 201.938 35.8657 199.138C35.2657 196.538 34.2657 193.938 33.3657 191.438C33.2657 191.238 32.8657 191.138 32.6657 190.938C32.5657 191.138 32.3657 191.338 32.3657 191.438C32.3657 193.738 32.5657 195.938 32.4657 198.238C32.2657 201.038 31.0657 203.438 28.4657 204.838C27.3657 205.338 26.2657 205.638 25.0657 206.038C20.6657 207.338 17.3657 209.938 15.4657 214.238C15.3657 214.538 15.0657 214.738 14.7657 215.038C14.6657 214.938 14.5657 214.938 14.3657 214.838C14.0657 212.638 13.6657 210.538 13.4657 208.338C12.8657 202.438 15.1657 197.738 19.7657 194.338C22.2657 192.438 25.1657 191.138 27.8657 189.538C31.2657 187.538 33.1657 183.738 32.5657 180.038C32.3657 178.538 31.8657 178.038 30.3657 177.638C28.2657 177.138 26.1657 176.738 24.1657 176.038C18.1657 174.038 15.1657 169.338 13.3657 163.638C12.7657 161.538 11.7657 159.438 10.9657 157.438C11.0657 157.438 11.4657 157.538 11.7657 157.738C12.3657 158.138 12.9657 158.738 13.6657 158.938C15.5657 159.538 17.4657 160.138 19.3657 160.438C21.7657 160.838 23.8657 161.438 25.0657 163.738C26.0657 165.638 27.2657 167.538 28.2657 169.438C29.0657 170.938 29.7657 172.538 30.5657 174.138C30.6657 174.438 30.9657 174.538 31.2657 174.838C31.4657 174.538 31.8657 174.338 31.8657 174.038C32.0657 172.238 32.1657 170.438 32.2657 168.738C32.4657 164.938 31.5657 161.338 30.9657 157.638C30.3657 154.338 30.5657 151.038 32.6657 148.138C33.4657 147.038 34.1657 145.838 34.5657 144.538C35.2657 142.438 35.6657 140.338 36.1657 138.238C36.3657 137.638 36.7657 137.038 37.0657 136.438C37.2657 136.438 37.3657 136.438 37.5657 136.438C36.3657 140.338 35.8657 143.938 40.7657 145.638C40.3657 145.938 40.0657 146.238 39.6657 146.438C39.5657 146.538 39.3657 146.638 39.2657 146.638C37.1657 147.638 36.0657 150.138 37.5657 152.238C38.3657 153.338 39.0657 154.438 39.8657 155.738C39.5657 155.738 39.3657 155.738 39.1657 155.638C37.3657 155.038 36.6657 153.438 35.7657 152.038C35.3657 151.438 34.7657 151.038 34.2657 150.538C33.7657 151.138 33.2657 151.738 32.8657 152.338C32.7657 152.438 32.7657 152.538 32.7657 152.638C32.6657 156.938 32.5657 161.138 33.6657 165.338C34.4657 168.338 34.8657 171.438 34.0657 174.438C33.6657 175.838 34.5657 176.138 35.2657 176.638C36.0657 177.138 36.3657 176.238 36.7657 175.838C38.1657 174.238 41.7657 173.138 43.1657 174.038C45.0657 175.238 46.8657 176.538 48.0657 178.538C49.1657 180.338 50.2657 182.238 51.5657 183.938C52.5657 185.238 53.8657 186.438 55.1657 187.838C53.9657 187.638 52.7657 187.838 51.5657 187.938ZM25.6657 168.638C23.8657 167.638 23.7657 167.438 24.0657 165.738C24.2657 164.038 23.0657 163.038 22.2657 161.838C22.2657 161.738 21.8657 161.738 21.7657 161.838C21.6657 161.938 21.6657 162.238 21.6657 162.338C21.9657 162.738 22.2657 163.138 22.5657 163.638C22.9657 164.338 23.1657 165.138 23.4657 165.938C23.2657 166.038 23.1657 166.138 22.9657 166.338C21.6657 165.538 20.4657 164.738 19.0657 163.838C19.0657 165.438 20.5657 165.638 21.1657 166.838C20.0657 166.638 19.1657 166.538 18.1657 166.338C18.1657 166.538 18.0657 166.738 18.0657 166.838C18.9657 167.138 19.8657 167.438 20.7657 167.538C22.2657 167.838 23.7657 168.238 24.8657 169.738C22.9657 169.938 21.1657 170.238 19.3657 169.538C19.6657 170.438 20.3657 170.938 21.2657 170.938C22.1657 171.038 23.0657 171.038 23.8657 170.938C25.5657 170.738 26.6657 171.738 27.5657 172.938C27.9657 173.538 28.3657 174.238 28.8657 174.838C29.0657 175.038 29.5657 175.138 29.8657 175.238C29.8657 174.838 29.9657 174.438 29.7657 174.138C28.9657 172.938 28.0657 171.638 27.0657 170.538C26.2657 169.538 26.3657 168.438 26.2657 167.238C26.2657 166.838 26.0657 166.538 25.9657 166.138C25.7657 166.238 25.6657 166.238 25.4657 166.338C25.5657 167.138 25.5657 167.838 25.6657 168.638ZM23.8657 197.038C22.9657 197.738 22.2657 198.438 21.5657 199.038C20.4657 199.938 19.4657 200.938 19.2657 202.538C19.2657 202.938 18.7657 203.338 18.6657 203.838C18.5657 204.038 18.6657 204.438 18.8657 204.638C18.9657 204.738 19.3657 204.838 19.4657 204.838C19.6657 204.638 19.8657 204.338 19.8657 204.138C19.9657 202.038 21.2657 200.538 22.7657 199.338C22.8657 199.238 23.1657 199.338 23.3657 199.338C23.0657 200.838 22.7657 202.338 22.4657 203.838C22.5657 203.838 22.6657 203.938 22.8657 203.938C23.0657 203.638 23.2657 203.338 23.3657 202.938C23.7657 201.738 24.3657 200.538 24.3657 199.338C24.3657 197.438 25.9657 197.138 26.9657 196.138C27.2657 195.838 27.5657 195.638 28.0657 195.238C28.5657 196.938 28.2657 198.438 27.5657 199.938C27.6657 200.038 27.7657 200.038 27.9657 200.138C28.1657 199.938 28.5657 199.638 28.6657 199.338C28.8657 198.438 29.1657 197.538 29.0657 196.638C28.7657 195.038 29.3657 193.938 30.5657 192.938C31.1657 192.338 31.6657 191.538 32.1657 190.838C32.0657 190.738 31.8657 190.538 31.7657 190.438C31.3657 190.738 31.0657 191.138 30.6657 191.438C29.8657 192.138 29.0657 192.738 28.2657 193.438C27.7657 193.938 27.2657 194.538 26.7657 195.038C25.9657 195.838 25.0657 196.238 23.8657 195.938C22.5657 195.738 21.2657 195.838 20.1657 196.738C19.6657 197.138 19.3657 197.838 18.9657 198.338C19.0657 198.438 19.2657 198.538 19.3657 198.638C20.2657 197.038 21.6657 196.338 23.8657 197.038ZM38.6657 215.238C38.7657 215.638 38.9657 216.138 38.8657 216.338C37.8657 217.938 37.7657 219.738 38.1657 221.538C38.5657 220.038 38.3657 218.338 39.4657 216.938C40.4657 218.838 40.7657 220.538 40.2657 222.438C40.0657 223.238 39.8657 223.938 39.7657 224.738C39.6657 225.138 39.8657 225.438 39.9657 225.838C40.0657 225.838 40.1657 225.838 40.2657 225.838C40.2657 225.538 40.3657 225.138 40.3657 224.838C40.4657 224.738 40.5657 224.638 40.6657 224.638C40.7657 224.838 40.7657 225.038 40.8657 225.238C41.1657 226.638 41.1657 228.138 41.6657 229.538C42.0657 230.638 42.9657 231.638 43.6657 232.638C43.6657 232.738 44.3657 232.538 44.3657 232.438C44.3657 232.038 44.3657 231.438 44.1657 231.338C42.6657 230.438 42.1657 228.938 41.9657 227.438C41.6657 225.038 41.5657 222.538 41.3657 220.038C41.3657 219.938 41.4657 219.738 41.5657 219.538C42.4657 220.338 43.2657 221.038 44.0657 221.738C44.0657 221.538 44.0657 221.038 43.8657 220.838C42.9657 219.738 41.8657 218.738 40.9657 217.538C40.1657 216.438 39.4657 215.138 38.7657 213.838C38.6657 213.638 38.5657 213.338 38.4657 213.038C38.2657 213.138 37.9657 213.338 37.7657 213.438C38.0657 214.038 38.3657 214.538 38.6657 215.238ZM47.0657 179.238C46.3657 178.838 45.6657 178.538 44.9657 178.338C43.5657 177.738 42.0657 177.238 40.6657 176.738C39.3657 176.338 37.9657 177.138 37.8657 178.338C37.8657 178.538 37.9657 178.638 38.0657 179.138C38.3657 178.738 38.4657 178.438 38.6657 178.338C39.1657 178.038 39.7657 177.738 40.2657 177.738C40.8657 177.838 41.5657 178.038 41.7657 179.038C42.0657 180.638 42.5657 182.238 43.0657 183.738C43.2657 183.638 43.4657 183.638 43.6657 183.538C43.2657 182.238 42.8657 180.938 42.5657 179.538C42.6657 179.438 42.7657 179.438 42.8657 179.338C43.0657 179.638 43.3657 179.838 43.5657 180.138C44.6657 181.538 45.6657 182.938 46.7657 184.338C47.2657 185.038 47.9657 185.138 48.7657 184.938C49.0657 184.838 49.4657 184.938 49.8657 184.938C50.1657 184.938 50.3657 184.738 50.6657 184.638C50.4657 184.438 50.1657 183.938 50.0657 184.038C47.2657 184.338 46.2657 182.238 44.9657 180.438C44.7657 180.138 44.5657 179.738 44.2657 179.338C45.7657 178.738 46.4657 180.538 48.1657 180.238C47.5657 179.838 47.3657 179.438 47.0657 179.238Z" fill="url(#paint1_radial_57_92)"/>
<path fill-rule="evenodd" clip-rule="evenodd" d="M50.8657 157.638C51.4657 157.338 52.0657 157.038 52.6657 156.738C52.8657 156.638 53.0657 156.638 53.1657 156.538C53.6657 156.238 54.1657 156.138 54.5657 155.738C54.9657 155.438 55.0657 154.838 55.3657 154.438C56.8657 152.538 56.4657 150.538 55.6657 148.538C55.2657 147.638 55.0657 146.638 54.8657 145.638C54.3657 143.838 55.3657 142.438 56.1657 140.938C56.5657 140.238 56.7657 139.538 57.1657 138.838C58.3657 136.538 54.7657 131.638 51.6657 131.938C50.3657 132.038 48.9657 132.338 47.8657 132.938C45.9657 133.938 44.1657 134.938 42.5657 136.338C40.8657 137.838 39.1657 139.638 38.8657 142.138C38.8657 142.538 39.4657 143.338 39.9657 143.538C40.9657 143.838 41.9657 143.738 42.9657 143.838C43.3657 143.938 43.7657 144.038 44.1657 144.138C43.8657 144.538 43.7657 145.038 43.3657 145.238C42.1657 145.938 40.9657 146.438 39.8657 147.238C37.4657 148.738 37.6657 150.538 40.1657 151.938C42.6657 153.338 45.0657 154.838 47.5657 156.238C48.4657 156.738 49.6657 157.138 50.8657 157.638Z" fill="url(#paint2_linear_57_92)"/>
<path fill-rule="evenodd" clip-rule="evenodd" d="M38.3 139.887C39.9 136.787 42.2 134.587 45.1 132.887C47.2 131.687 49.2 130.487 51.7 130.387C52.9 130.387 54.6 129.087 54.7 127.487C54.8 125.787 54.9 124.187 53.4 122.887C52.4 121.987 51.3 121.687 50.3 122.387C48.8 123.287 47.2 124.287 46 125.587C44.3 127.387 42.8 129.387 41.5 131.487C40.2 133.587 39.3 135.887 38.3 138.087C38.1 138.587 38.1 139.187 38 139.787C38.1 139.787 38.2 139.787 38.3 139.887Z" fill="url(#paint3_linear_57_92)"/>
<path fill-rule="evenodd" clip-rule="evenodd" d="M40.6657 254.938C40.7657 255.538 40.7657 256.538 41.8657 256.838C42.5657 256.938 43.9657 255.638 43.9657 254.838C43.9657 254.138 42.8657 253.338 41.9657 253.338C41.2657 253.338 40.6657 253.938 40.6657 254.938Z" fill="#FBB040"/>
<path fill-rule="evenodd" clip-rule="evenodd" d="M33.9657 238.138C34.0657 240.038 34.6657 241.138 35.3657 240.838C35.8657 240.638 36.2657 239.938 36.3657 239.338C36.5657 238.638 35.2657 237.538 34.5657 237.638C34.3657 237.738 34.1657 238.038 33.9657 238.138Z" fill="#FBB040"/>
<path fill-rule="evenodd" clip-rule="evenodd" d="M61.2657 150.738C62.0657 151.338 62.8657 152.038 63.0657 151.938C63.6657 151.538 64.0657 150.838 64.4657 150.238C64.5657 150.038 63.7657 149.238 63.7657 149.338C62.8657 149.638 62.2657 150.138 61.2657 150.738Z" fill="#FBB040"/>
<path fill-rule="evenodd" clip-rule="evenodd" d="M66.2657 137.838C64.7657 136.838 63.3657 137.138 63.1657 138.438C63.0657 139.438 63.6657 139.938 64.5657 139.438C65.1657 139.038 65.6657 138.438 66.2657 137.838Z" fill="#FBB040"/>
<path fill-rule="evenodd" clip-rule="evenodd" d="M62.3657 144.638C63.0657 144.738 63.7657 144.838 64.3657 144.838C64.5657 144.838 64.8657 144.438 64.8657 144.238C64.8657 144.038 64.5657 143.538 64.3657 143.638C63.6657 143.638 62.9657 143.838 62.2657 143.938C62.3657 144.138 62.3657 144.338 62.3657 144.638Z" fill="#FBB040"/>
<path fill-rule="evenodd" clip-rule="evenodd" d="M37.6657 213.338C37.9657 213.938 38.3657 214.538 38.5657 215.138C38.6657 215.538 38.8657 216.038 38.7657 216.238C37.7657 217.838 37.6657 219.638 38.0657 221.438C38.4657 219.938 38.2657 218.238 39.3657 216.838C40.3657 218.738 40.6657 220.438 40.1657 222.338C39.9657 223.138 39.7657 223.838 39.6657 224.638C39.5657 225.038 39.7657 225.338 39.8657 225.738C39.9657 225.738 40.0657 225.738 40.1657 225.738C40.1657 225.438 40.2657 225.038 40.2657 224.738C40.3657 224.638 40.4657 224.538 40.5657 224.538C40.6657 224.738 40.6657 224.938 40.7657 225.138C41.0657 226.538 41.0657 228.038 41.5657 229.438C41.9657 230.538 42.8657 231.538 43.5657 232.538C43.5657 232.638 44.2657 232.438 44.2657 232.338C44.2657 231.938 44.2657 231.338 44.0657 231.238C42.5657 230.338 42.0657 228.838 41.8657 227.338C41.5657 224.938 41.4657 222.438 41.2657 219.938C41.2657 219.838 41.3657 219.638 41.4657 219.438C42.3657 220.238 43.1657 220.938 43.9657 221.638C43.9657 221.438 43.9657 220.938 43.7657 220.738C42.8657 219.638 41.7657 218.638 40.8657 217.438C40.0657 216.338 39.3657 215.038 38.6657 213.738C38.5657 213.538 38.4657 213.238 38.3657 212.938C38.1657 213.038 37.9657 213.238 37.6657 213.338Z" fill="black"/>
<path fill-rule="evenodd" clip-rule="evenodd" d="M47.9657 180.338C47.5657 179.838 47.3657 179.438 46.9657 179.238C46.2657 178.838 45.5657 178.538 44.8657 178.338C43.4657 177.738 41.9657 177.238 40.5657 176.738C39.2657 176.338 37.8657 177.138 37.7657 178.338C37.7657 178.538 37.8657 178.638 37.9657 179.138C38.2657 178.738 38.3657 178.438 38.5657 178.338C39.0657 178.038 39.6657 177.738 40.1657 177.738C40.7657 177.838 41.4657 178.038 41.6657 179.038C41.9657 180.638 42.4657 182.238 42.9657 183.738C43.1657 183.638 43.3657 183.638 43.5657 183.538C43.1657 182.238 42.7657 180.938 42.4657 179.538C42.5657 179.438 42.6657 179.438 42.7657 179.338C42.9657 179.638 43.2657 179.838 43.4657 180.138C44.5657 181.538 45.5657 182.938 46.6657 184.338C47.1657 185.038 47.8657 185.138 48.6657 184.938C48.9657 184.838 49.3657 184.938 49.7657 184.938C50.0657 184.938 50.2657 184.738 50.5657 184.638C50.3657 184.438 50.0657 183.938 49.9657 184.038C47.1657 184.338 46.1657 182.238 44.8657 180.438C44.6657 180.138 44.4657 179.738 44.1657 179.338C45.5657 178.838 46.2657 180.638 47.9657 180.338Z" fill="black"/>
<path fill-rule="evenodd" clip-rule="evenodd" d="M40.6076 6.39992C40.8076 6.19992 41.2076 5.79992 41.3076 5.39992C41.5076 4.59992 40.5076 3.19989 40.0076 3.49989C39.5076 3.69989 38.9076 4.39992 38.8076 4.89992C38.7076 5.69992 39.3076 6.29992 40.6076 6.39992Z" fill="#FBB040"/>
<path fill-rule="evenodd" clip-rule="evenodd" d="M54.8075 27.1999C56.5075 27.6999 57.6076 27.2999 57.9076 26.2999C58.1076 25.4999 57.7076 24.9999 56.9076 24.7999C55.0076 24.5999 55.8075 26.4999 54.8075 27.1999Z" fill="#FBB040"/>
<path fill-rule="evenodd" clip-rule="evenodd" d="M40.1076 32.3999C39.5076 31.7999 39.1076 31.3999 38.6076 30.8999C38.2076 31.2999 37.6076 31.5999 37.5076 32.0999C37.3076 33.0999 38.0076 34.2999 38.6076 34.0999C39.1076 33.8999 39.5076 33.1999 40.1076 32.3999Z" fill="#FBB040"/>
<path fill-rule="evenodd" clip-rule="evenodd" d="M51.3075 12.4999C52.5075 12.5999 53.4075 12.5999 54.2075 12.5999C54.2075 12.0999 54.3076 11.3999 54.0076 11.1999C53.6076 10.8999 52.8076 10.6999 52.4076 10.8999C52.0076 11.0999 51.8075 11.7999 51.3075 12.4999Z" fill="#FBB040"/>
<path fill-rule="evenodd" clip-rule="evenodd" d="M41.6076 91.1999C41.5076 90.4999 41.5076 89.6999 41.4076 88.8999C43.2076 89.8999 43.3076 90.0999 43.0076 91.7999C42.8076 93.4999 44.0075 94.4999 44.8075 95.6999C44.8075 95.7999 45.2075 95.7999 45.3075 95.6999C45.4075 95.5999 45.4076 95.2999 45.4076 95.1999C45.1076 94.7999 44.8076 94.3999 44.5076 93.8999C44.1076 93.1999 43.9076 92.3999 43.6076 91.5999C43.8076 91.4999 43.9076 91.3999 44.1076 91.1999C45.4076 91.9999 46.6076 92.7999 48.0076 93.6999C48.0076 92.0999 46.5076 91.8999 45.9076 90.6999C47.0076 90.8999 47.9076 90.9999 48.9076 91.1999C48.9076 90.9999 49.0076 90.7999 49.0076 90.6999C48.1076 90.3999 47.2075 90.0999 46.3075 89.9999C44.8075 89.6999 43.3076 89.2999 42.2076 87.7999C44.1076 87.5999 45.9076 87.2999 47.7076 87.9999C47.4076 87.0999 46.7075 86.5999 45.8075 86.5999C44.9075 86.4999 44.0076 86.4999 43.2076 86.5999C41.5076 86.7999 40.4076 85.7999 39.5076 84.5999C39.1076 83.9999 38.7076 83.2999 38.2076 82.6999C38.0076 82.4999 37.5076 82.3999 37.2076 82.2999C37.2076 82.6999 37.1075 83.0999 37.3075 83.3999C38.1075 84.5999 39.0076 85.8999 40.0076 86.9999C40.8076 87.9999 40.7075 89.0999 40.8075 90.2999C40.8075 90.6999 41.0076 90.9999 41.1076 91.3999C41.3076 91.2999 41.4076 91.2999 41.6076 91.1999Z" fill="black"/>
<path fill-rule="evenodd" clip-rule="evenodd" d="M47.9076 58.8999C46.8076 60.5999 45.4076 61.2999 43.2076 60.5999C44.1076 59.8999 44.8076 59.1999 45.5076 58.5999C46.6076 57.6999 47.6075 56.6999 47.8075 55.0999C47.8075 54.6999 48.3076 54.2999 48.4076 53.7999C48.5076 53.5999 48.4076 53.1999 48.2076 52.9999C48.1076 52.8999 47.7076 52.7999 47.6076 52.7999C47.4076 52.9999 47.2076 53.2999 47.2076 53.4999C47.1076 55.5999 45.8075 57.0999 44.3075 58.2999C44.2075 58.3999 43.9076 58.2999 43.7076 58.2999C44.0076 56.7999 44.3076 55.2999 44.6076 53.7999C44.5076 53.7999 44.4076 53.6999 44.2076 53.6999C44.0076 53.9999 43.8076 54.2999 43.7076 54.6999C43.3076 55.8999 42.7076 57.0999 42.7076 58.2999C42.7076 60.1999 41.1076 60.4999 40.1076 61.4999C39.8076 61.7999 39.5076 61.9999 39.0076 62.3999C38.5076 60.6999 38.8076 59.1999 39.5076 57.6999C39.4076 57.5999 39.3076 57.5999 39.1076 57.4999C38.9076 57.6999 38.5076 57.9999 38.4076 58.2999C38.2076 59.1999 37.9076 60.0999 38.0076 60.9999C38.3076 62.5999 37.7076 63.6999 36.5076 64.6999C35.9076 65.2999 35.4076 66.0999 34.9076 66.7999C35.0076 66.8999 35.2076 67.0999 35.3076 67.1999C35.7076 66.8999 36.0076 66.4999 36.4076 66.1999C37.2076 65.4999 38.0076 64.8999 38.8076 64.1999C39.3076 63.6999 39.8076 63.0999 40.3076 62.5999C41.1076 61.7999 42.0076 61.3999 43.2076 61.6999C44.5076 61.8999 45.8076 61.7999 46.9076 60.8999C47.4076 60.4999 47.7076 59.7999 48.1076 59.2999C48.2076 59.0999 48.1076 58.9999 47.9076 58.8999Z" fill="black"/>
<path fill-rule="evenodd" clip-rule="evenodd" d="M13.9076 100.1C13.9076 100.1 16.3076 99.4999 17.0076 99.6999C17.7076 99.8999 26.9076 105.2 27.4076 105.2C27.9076 105.2 27.6076 105.4 27.5076 104.5C27.4076 103.6 26.6076 102.9 26.5076 102.5C26.4076 102.2 27.4076 101.8 27.9076 101.8C28.3076 101.8 28.4076 101 28.0076 100.6C27.7076 100.3 23.0076 96.2999 22.7076 95.2999C22.4076 94.2999 19.3076 90.7999 17.5076 91.1999C15.7076 91.5999 12.9075 93.8999 12.8075 95.1999C12.9075 96.5999 13.1076 99.5999 13.9076 100.1Z" fill="url(#paint4_linear_57_92)"/>
<path fill-rule="evenodd" clip-rule="evenodd" d="M35.8076 87.0999C35.7076 88.7999 35.5076 90.4999 35.7076 92.1999C36.1076 95.4999 36.8076 98.6999 37.2076 102C37.5076 105.1 37.0076 108 35.1076 110.6C34.4076 111.5 33.8076 112.5 33.5076 113.6C32.8076 115.8 32.3076 118.1 31.6076 120.4C31.2076 121.7 30.7076 123.2 28.8076 123.1C28.6076 123.1 28.3076 123.4 28.1076 123.7C27.6076 124.5 27.1076 125.4 26.7076 126.3C24.8076 129.8 22.2076 132.9 19.0076 135.3C16.6076 137.2 15.0076 136.9 13.0076 135.5C10.6076 133.8 11.3076 128.2 13.5076 126.9C9.50756 124 8.70756 121.1 9.60756 118.2C8.10756 118.3 6.70756 118.4 5.10756 118.5C5.30756 119.7 4.90755 120.7 3.80755 121.4C2.90755 121.9 1.10756 121.9 0.407558 121.1C-0.492442 120.1 0.307552 119.3 0.807552 118.6C1.60755 117.5 2.50755 116.7 4.20755 117C5.80755 117.3 7.50755 117.1 9.20755 117.2C10.4076 117.3 10.6076 116.4 10.9076 115.6C10.1076 115.6 9.30756 115.7 8.60756 115.6C7.60756 115.5 6.90756 114.6 6.10756 114.4C5.40756 114.2 4.40756 115.3 3.50756 115.4C2.90756 115.5 2.00756 115.1 1.60756 114.6C1.00756 113.7 1.50755 112.2 2.30755 111.8C3.40755 111.2 5.60756 111.7 6.10756 112.6C7.20756 114.6 9.90756 115.1 11.4076 113.5C11.8076 113.1 11.8076 112 11.6076 111.3C11.5076 110.9 10.9076 110.6 10.5076 110.3C9.60756 109.8 8.60755 109.5 7.70755 109C6.90755 108.5 6.40756 108.1 5.50756 108.9C4.80756 109.6 3.60755 110.1 2.70755 109.2C2.20755 108.7 2.10756 107.8 2.10756 107C2.10756 106.6 2.60755 106.1 2.80755 105.7C3.20755 105.1 3.60756 104.3 4.40756 104.6C5.20756 104.9 6.10756 105.4 6.40756 106.1C7.20756 108 9.00756 108.2 10.4076 109.2C10.4076 108.8 10.3076 108.6 10.3076 108.4C10.2076 107.2 9.70756 105.8 10.1076 104.8C10.6076 103.3 11.8076 102 12.7076 100.5C12.8076 100.3 13.0076 99.9999 13.0076 99.6999C12.9076 98.6999 12.5076 97.5999 12.5076 96.5999C12.4076 93.7999 15.0076 90.9999 17.8076 91.0999C19.8076 91.0999 21.4076 91.8999 22.5076 93.6999C24.0076 96.1999 25.6076 98.6999 28.2076 100.2C28.3076 100.3 28.8076 101.4 28.8076 101.6C28.9076 102 27.7076 101 27.5076 100.8C26.2076 99.6999 24.9076 98.4999 23.8076 97.2999C22.8076 96.1999 22.1076 94.7999 21.2076 93.5999C20.2076 92.3999 18.8076 91.9999 17.4076 92.3999C15.8076 92.8999 13.8076 93.2999 13.7076 95.5999C13.6076 96.3999 13.6076 97.1999 13.7076 97.8999C14.0076 99.6999 14.0076 99.5999 15.8076 99.4999C16.6076 99.3999 17.6076 99.3999 18.3076 99.6999C20.4076 100.8 22.4076 102 24.5076 103.2C25.5076 103.8 26.6076 104.4 27.6076 104.9C27.7076 104.8 27.8076 104.7 27.8076 104.6C27.3076 104.2 26.8076 103.8 26.3076 103.3C26.0076 103 25.8076 102.5 25.5076 102.1C25.9076 101.9 26.4076 101.5 26.8076 101.5C28.4076 101.3 29.6076 101.9 30.5076 103.2C31.3076 104.3 32.0076 105.5 32.9076 106.8C33.1076 106.2 33.4076 105.9 33.4076 105.5C33.5076 101.6 33.6076 97.5999 32.7076 93.6999C32.0076 90.7999 31.3076 87.8999 31.9076 84.7999C32.0076 84.4999 32.0076 84.1999 31.9076 83.9999C31.8076 83.6999 31.6076 83.3999 31.4076 83.2999C31.3076 83.1999 31.0076 83.4999 30.8076 83.6999C28.8076 85.2999 26.6076 86.1999 24.1076 85.4999C22.0076 84.8999 20.5076 83.2999 19.2076 81.6999C17.9076 79.9999 17.0076 77.9999 15.8076 76.2999C14.4076 74.1999 12.8076 72.1999 10.2076 71.2999C10.0076 71.1999 9.60755 70.7999 9.70755 70.5999C9.80755 70.2999 10.1076 69.8999 10.4076 69.7999C13.2076 69.3999 15.9076 68.8999 18.7076 68.6999C19.8076 68.5999 21.0076 68.8999 22.1076 69.1999C25.1076 70.0999 27.4076 71.9999 29.3076 74.4999C30.1076 75.4999 31.0076 76.2999 31.9076 77.0999C32.0076 76.9999 32.2076 76.9999 32.3076 76.8999C32.2076 74.2999 32.7076 71.5999 31.6076 69.0999C30.1076 65.5999 28.1076 62.1999 27.9076 58.2999C27.7076 55.1999 27.7076 51.9999 27.8076 48.8999C27.9076 47.1999 27.8076 46.9999 26.3076 46.0999C24.9076 45.2999 23.5076 44.3999 22.7076 42.8999C21.2076 40.0999 20.8076 37.0999 20.7076 33.9999C20.6076 31.9999 20.4076 29.9999 20.1076 27.9999C19.8076 25.8999 19.0076 23.8999 17.1076 22.6999C17.3076 21.7999 17.7076 21.5999 18.5076 21.9999C19.1076 22.2999 19.7076 22.5999 20.3076 22.5999C22.3076 22.7999 24.3076 22.8999 25.9076 24.1999C27.8076 25.6999 29.9076 26.9999 31.2076 28.7999C33.2076 31.4999 34.0076 34.8999 34.3076 38.2999C34.6076 41.0999 34.5076 43.7999 32.4076 45.9999C31.8076 46.6999 31.3076 47.6999 31.0076 48.6999C30.8076 49.5999 30.8076 50.4999 30.9076 51.3999C31.3076 53.9999 31.8076 56.5999 32.3076 59.2999C32.5076 60.1999 32.8076 61.0999 33.1076 61.9999C33.3076 61.9999 33.4076 61.9999 33.6076 61.8999C33.6076 61.1999 33.6076 60.3999 33.7076 59.6999C34.1076 56.6999 35.3076 54.1999 37.8076 52.4999C38.5076 51.9999 38.9076 51.5999 38.9076 50.7999C38.9076 47.0999 40.5076 43.9999 42.5076 40.9999C43.4076 39.5999 44.3076 38.1999 45.4076 36.4999C42.9076 37.4999 42.3076 37.5999 41.1076 36.6999C40.3076 36.0999 39.5076 35.3999 38.4076 35.7999C38.2076 35.8999 37.9076 35.6999 37.7076 35.5999C36.5076 34.6999 36.3076 31.6999 37.4076 30.5999C38.2076 29.6999 40.0076 30.0999 40.3076 31.2999C40.5076 32.0999 40.6076 32.9999 40.5076 33.7999C40.3076 34.7999 40.8076 35.2999 41.5076 35.6999C42.3076 36.1999 43.2076 36.8999 44.2076 36.0999C44.6076 35.7999 45.1076 35.7999 45.6076 35.6999C45.7076 35.7999 45.8076 35.8999 45.9076 35.9999C46.3076 34.2999 47.0076 32.6999 47.0076 30.9999C47.0076 26.2999 45.5076 22.0999 42.3076 18.4999C41.7076 17.7999 41.4076 17.8999 40.6076 18.2999C39.5076 18.8999 38.2076 19.2999 36.9076 19.4999C36.0076 19.6999 35.0076 19.4999 34.3076 19.3999C33.9076 20.1999 33.7076 21.1999 33.2076 21.2999C32.6076 21.4999 31.5076 21.2999 31.0076 20.7999C30.3076 20.2999 29.6076 19.2999 29.6076 18.5999C29.6076 17.6999 30.3076 16.5999 30.9076 15.8999C31.5076 15.2999 32.9076 16.0999 33.5076 16.9999C33.7076 17.2999 33.9076 17.5999 34.2076 17.7999C35.8076 18.7999 39.3076 18.2999 40.7076 16.8999C40.6076 16.7999 40.6076 16.5999 40.5076 16.4999C38.1076 13.6999 35.2076 11.5999 32.0076 9.79991C29.2076 8.19991 26.5076 6.49992 23.5076 5.39992C22.9076 5.19992 22.1076 4.39991 21.9076 3.79991C21.4076 2.29991 23.3076 -0.000106812 24.9076 -0.000106812C25.3076 -0.000106812 25.9076 0.199893 26.2076 0.499893C27.5076 1.59989 27.7076 3.19992 26.7076 5.39992C30.3076 7.49992 33.8076 9.59991 37.3076 11.6999C38.9076 9.89991 38.6076 7.99991 37.9076 6.29991C37.3076 4.99991 37.7076 4.29991 38.3076 3.29991C38.9076 2.39991 39.6076 2.29991 40.5076 2.69991C41.9076 3.29991 42.6076 5.89991 41.8076 7.19991C41.7076 7.39991 41.4076 7.5999 41.3076 7.5999C39.4076 7.4999 39.4076 8.89991 39.1076 10.1999C39.0076 10.5999 38.9076 10.9999 38.7076 11.2999C38.1076 12.1999 38.4076 12.6999 39.1076 13.2999C41.0076 15.2999 42.9076 17.3999 44.6076 19.5999C45.5076 20.7999 47.2076 21.2999 48.3076 20.1999C49.9076 18.6999 51.1076 16.8999 50.8076 14.4999C50.7076 13.7999 50.7076 13.0999 50.7076 12.4999C50.7076 10.3999 52.4076 9.29991 54.1076 10.2999C54.6076 10.5999 55.0076 11.3999 55.2076 12.0999C55.7076 13.6999 54.6076 14.7999 53.1076 14.1999C52.2076 13.8999 51.9076 14.0999 51.8076 14.9999C51.7076 17.0999 50.8076 18.9999 49.2076 20.4999C48.4076 21.2999 47.2076 21.5999 46.1076 22.1999C46.3076 22.8999 46.6076 23.6999 46.9076 24.5999C47.2076 25.4999 47.4076 26.3999 47.7076 27.2999C47.8076 27.5999 48.0076 27.9999 48.3076 28.1999C49.9076 29.1999 51.5076 28.5999 53.0076 28.1999C54.1076 27.8999 54.2076 26.9999 54.5076 26.0999C54.8076 25.2999 55.4076 24.3999 56.1076 24.0999C57.0076 23.6999 58.7076 24.7999 58.9076 25.7999C59.2076 27.2999 58.6076 28.2999 57.3076 28.7999C56.6076 29.0999 55.9076 29.2999 55.2076 28.6999C55.1076 28.5999 54.7076 28.4999 54.6076 28.5999C52.6076 29.7999 50.5076 30.3999 48.1076 29.3999C48.2076 33.7999 46.3076 37.2999 43.9076 40.5999C42.3076 42.7999 40.9076 45.0999 40.1076 47.6999C39.7076 48.9999 39.7076 50.3999 39.5076 51.8999C41.1076 51.3999 42.5076 51.0999 43.8076 50.4999C47.7076 48.6999 50.6076 45.8999 51.5076 41.5999C51.6076 41.2999 51.9076 41.0999 52.1076 40.8999C52.3076 41.0999 52.6076 41.2999 52.7076 41.5999C53.3076 43.8999 54.1076 46.1999 54.4076 48.4999C55.4076 55.1999 53.3076 60.8999 47.8076 64.9999C45.2076 66.8999 42.2076 68.2999 39.4076 70.0999C36.6076 71.8999 35.3076 74.5999 35.4076 77.8999C35.4076 78.6999 35.8076 79.2999 36.6076 79.5999C37.8076 79.8999 39.0076 80.3999 40.3076 80.5999C43.3076 81.0999 46.0076 82.0999 48.2076 84.0999C51.3076 86.8999 53.3076 90.2999 54.3076 94.2999C55.1076 97.3999 56.3076 100.4 58.9076 102.6C59.1076 102.8 59.1076 103.3 59.0076 103.5C58.9076 103.6 58.4076 103.7 58.2076 103.6C57.5076 103.3 56.8076 103 56.2076 102.6C53.5076 100.8 50.8076 99.3999 47.4076 99.2999C46.1076 99.2999 44.8076 98.7999 43.7076 98.1999C40.9076 96.8999 39.9076 93.8999 38.4076 91.4999C37.5076 90.0999 36.8076 88.4999 36.0076 86.7999C36.0076 86.6999 35.8076 86.8999 35.8076 87.0999ZM15.4076 74.1999C16.7076 75.8999 17.8076 77.6999 18.9076 79.5999C20.1076 81.5999 21.9076 82.8999 23.8076 84.0999C25.3076 84.9999 28.8076 83.7999 30.2076 82.2999C30.6076 81.8999 30.9076 80.9999 31.7076 81.4999C32.4076 81.9999 33.3076 82.2999 32.9076 83.6999C32.1076 86.6999 32.6076 89.7999 33.3076 92.7999C34.4076 96.9999 34.3076 101.2 34.2076 105.5C34.2076 105.6 34.2076 105.8 34.1076 105.8C33.6076 106.4 33.2076 107 32.7076 107.6C32.2076 107.1 31.6076 106.7 31.2076 106.1C30.3076 104.7 29.6076 103.1 27.8076 102.5C27.6076 102.4 27.4076 102.5 27.1076 102.4C27.9076 103.6 28.7076 104.8 29.4076 105.9C30.9076 108 29.7076 110.5 27.7076 111.5C27.6076 111.6 27.4076 111.6 27.3076 111.7C27.0076 111.9 26.7076 112.2 26.2076 112.5C31.1076 114.2 30.6076 117.8 29.4076 121.7C29.6076 121.7 29.7076 121.7 29.9076 121.7C30.2076 121.1 30.6076 120.5 30.8076 119.9C31.4076 117.8 31.8076 115.6 32.4076 113.6C32.8076 112.3 33.5076 111.1 34.3076 110C36.5076 107.1 36.6076 103.8 36.0076 100.5C35.4076 96.7999 34.5076 93.1999 34.7076 89.3999C34.8076 87.5999 34.9076 85.7999 35.1076 84.0999C35.1076 83.7999 35.5076 83.5999 35.7076 83.2999C35.9076 83.4999 36.2076 83.6999 36.4076 83.9999C37.2076 85.5999 37.9076 87.1999 38.7076 88.6999C39.7076 90.5999 40.9076 92.4999 41.9076 94.3999C43.1076 96.6999 45.3076 97.2999 47.6076 97.6999C49.5076 97.9999 51.5076 98.5999 53.3076 99.1999C54.0076 99.3999 54.5076 99.9999 55.2076 100.4C55.5076 100.6 55.9076 100.7 56.0076 100.7C55.2076 98.5999 54.3076 96.5999 53.6076 94.4999C51.9076 88.6999 48.8076 84.0999 42.8076 82.0999C40.8076 81.3999 38.6076 80.9999 36.6076 80.4999C35.1076 80.0999 34.6076 79.5999 34.4076 78.0999C33.8076 74.2999 35.7076 70.5999 39.1076 68.5999C41.8076 66.9999 44.7076 65.5999 47.2076 63.7999C51.8076 60.3999 54.1076 55.6999 53.5076 49.7999C53.3076 47.5999 52.9076 45.4999 52.6076 43.2999C52.5076 43.1999 52.4076 43.1999 52.2076 43.0999C52.0076 43.2999 51.7076 43.5999 51.5076 43.8999C49.6076 48.0999 46.3076 50.6999 41.9076 52.0999C40.8076 52.3999 39.6076 52.7999 38.5076 53.2999C35.8076 54.6999 34.7076 57.0999 34.5076 59.8999C34.3076 62.0999 34.5076 64.3999 34.6076 66.6999C34.6076 66.8999 34.4076 67.0999 34.3076 67.1999C34.1076 66.9999 33.7076 66.8999 33.6076 66.6999C32.7076 64.0999 31.7076 61.5999 31.1076 58.9999C30.5076 56.1999 30.1076 53.3999 29.8076 50.4999C29.6076 48.6999 29.9076 46.9999 31.1076 45.4999C32.6076 43.6999 33.5076 41.5999 33.2076 39.0999C32.7076 35.2999 32.0076 31.4999 29.6076 28.4999C27.7076 26.0999 25.1076 24.2999 21.9076 23.7999C21.0076 23.6999 20.2076 23.4999 19.2076 23.2999C19.7076 24.5999 20.2076 25.6999 20.5076 26.7999C20.9076 28.6999 21.2076 30.6999 21.3076 32.6999C21.4076 35.7999 21.7076 38.8999 23.0076 41.7999C23.7076 43.2999 25.1076 44.1999 26.4076 44.9999C28.2076 45.9999 28.6076 46.3999 28.4076 48.4999C28.0076 52.3999 27.9076 56.1999 28.7076 60.0999C29.0076 61.5999 29.6076 62.9999 30.2076 64.4999C30.9076 66.0999 31.9076 67.5999 32.5076 69.1999C32.9076 70.3999 32.8076 71.6999 32.9076 72.9999C33.0076 74.6999 33.0076 76.4999 33.0076 78.2999C33.0076 78.4999 32.8076 78.9999 32.7076 78.9999C32.4076 79.0999 31.9076 78.9999 31.7076 78.7999C30.3076 77.4999 29.0076 76.2999 27.7076 74.8999C25.7076 72.5999 23.4076 70.4999 20.3076 69.9999C18.7076 69.6999 17.1076 69.9999 15.4076 70.1999C14.2076 70.2999 13.1076 70.5999 11.8076 70.7999C13.2076 71.6999 14.4076 72.7999 15.4076 74.1999ZM14.4076 100.9C14.2076 101 14.0076 101 13.9076 101.1C13.4076 101.4 12.9076 101.5 12.5076 101.9C12.1076 102.2 12.0076 102.8 11.7076 103.2C10.2076 105.1 10.6076 107.1 11.4076 109.1C11.8076 110 12.0076 111 12.2076 112C12.7076 113.8 11.7076 115.2 10.9076 116.7C10.5076 117.4 10.3076 118.1 9.90756 118.8C8.70756 121.1 12.3076 126 15.4076 125.7C16.7076 125.6 18.1076 125.3 19.2076 124.7C21.1076 123.7 22.9076 122.7 24.5076 121.3C26.2076 119.8 27.9076 118 28.2076 115.5C28.2076 115.1 27.6076 114.3 27.1076 114.1C26.1076 113.8 25.1076 113.9 24.1076 113.8C23.7076 113.7 23.3076 113.6 22.9076 113.5C23.2076 113.1 23.3076 112.6 23.7076 112.4C24.9076 111.7 26.1076 111.2 27.2076 110.4C29.6076 108.9 29.4076 107.1 26.9076 105.7C24.4076 104.3 22.0076 102.8 19.5076 101.4C18.4076 100.8 17.3076 100.5 16.0076 99.9999C15.6076 100.4 15.0076 100.6 14.4076 100.9ZM21.8076 124.7C19.7076 125.9 17.7076 127.1 15.2076 127.2C14.0076 127.2 12.3076 128.5 12.2076 130.1C12.1076 131.8 12.0076 133.4 13.5076 134.7C14.5076 135.6 15.6076 135.9 16.6076 135.2C18.1076 134.3 19.7076 133.3 20.9076 132C22.6076 130.2 24.1076 128.2 25.4076 126.1C26.7076 124 27.6076 121.7 28.6076 119.5C28.8076 119 28.8076 118.4 28.9076 117.8C28.8076 117.8 28.7076 117.7 28.5076 117.7C27.1076 120.7 24.8076 123 21.8076 124.7ZM25.2076 0.799911C24.5076 0.699911 23.1076 1.99991 23.1076 2.79991C23.1076 3.49991 24.2076 4.29991 25.1076 4.29991C25.8076 4.29991 26.4076 3.69991 26.4076 2.69991C26.3076 2.09991 26.3076 1.09991 25.2076 0.799911ZM31.6076 16.7999C31.1076 16.9999 30.7076 17.6999 30.6076 18.2999C30.4076 18.9999 31.7076 20.0999 32.4076 19.9999C32.7076 19.9999 32.9076 19.6999 33.0076 19.5999C33.0076 17.6999 32.3076 16.4999 31.6076 16.7999ZM41.3076 5.39992C41.5076 4.59992 40.5076 3.19989 40.0076 3.49989C39.5076 3.69989 38.9076 4.39992 38.8076 4.89992C38.7076 5.69992 39.3076 6.39989 40.6076 6.49989C40.8076 6.19989 41.2076 5.79992 41.3076 5.39992ZM57.9076 26.3999C58.1076 25.5999 57.7076 25.0999 56.9076 24.8999C55.0076 24.5999 55.8075 26.4999 54.8075 27.1999C56.6075 27.6999 57.7076 27.2999 57.9076 26.3999ZM38.6076 30.8999C38.2076 31.2999 37.6076 31.5999 37.5076 32.0999C37.3076 33.0999 38.0076 34.2999 38.6076 34.0999C39.1076 33.8999 39.4076 33.1999 40.1076 32.3999C39.5076 31.7999 39.0076 31.3999 38.6076 30.8999ZM4.10756 105.7C3.50756 106.1 3.10755 106.8 2.70755 107.4C2.60755 107.6 3.40756 108.4 3.40756 108.3C4.10756 108 4.80755 107.5 5.80755 106.8C5.00755 106.3 4.20756 105.6 4.10756 105.7ZM3.90756 119.2C4.00756 118.2 3.40756 117.7 2.50756 118.2C1.90756 118.6 1.40755 119.2 0.807552 119.8C2.30755 120.8 3.70756 120.5 3.90756 119.2ZM54.2075 12.5999C54.2075 12.0999 54.3076 11.3999 54.0076 11.1999C53.6076 10.8999 52.8076 10.6999 52.4076 10.8999C52.0076 11.0999 51.8075 11.7999 51.3075 12.4999C52.6075 12.5999 53.4075 12.5999 54.2075 12.5999ZM2.60756 112.8C2.40756 112.8 2.10756 113.2 2.10756 113.4C2.10756 113.6 2.40756 114.1 2.60756 114C3.30756 114 4.00755 113.8 4.70755 113.7C4.70755 113.5 4.70755 113.2 4.70755 113C4.00755 112.9 3.30756 112.8 2.60756 112.8Z" fill="black"/>
<path fill-rule="evenodd" clip-rule="evenodd" d="M15.5076 69.6999C17.1076 69.5999 18.8076 69.1999 20.4076 69.4999C23.5076 69.9999 25.8075 72.0999 27.8075 74.3999C29.0075 75.7999 30.4075 77.0999 31.8075 78.2999C32.0075 78.4999 32.5075 78.4999 32.8075 78.4999C32.9075 78.4999 33.1076 77.9999 33.1076 77.7999C33.1076 75.9999 33.1076 74.2999 33.0076 72.4999C32.9076 71.1999 33.0076 69.8999 32.6076 68.6999C32.0076 67.0999 31.0075 65.5999 30.3075 63.9999C29.7075 62.5999 29.1075 61.0999 28.8075 59.5999C28.0075 55.7999 28.1076 51.8999 28.5076 47.9999C28.7076 45.9999 28.3076 45.4999 26.5076 44.4999C25.1076 43.6999 23.8076 42.8999 23.1076 41.2999C21.8076 38.3999 21.5076 35.3999 21.4076 32.1999C21.3076 30.1999 21.0076 28.1999 20.6076 26.2999C20.4076 25.1999 19.8075 24.0999 19.3075 22.7999C20.3075 22.9999 21.1076 23.0999 22.0076 23.2999C25.2076 23.7999 27.7076 25.4999 29.7076 27.9999C32.1076 31.0999 32.8075 34.7999 33.3075 38.5999C33.6075 41.0999 32.7076 43.0999 31.2076 44.9999C30.0076 46.4999 29.7076 48.1999 29.9076 49.9999C30.2076 52.7999 30.5076 55.6999 31.2076 58.4999C31.8076 61.0999 32.8076 63.6999 33.7076 66.1999C33.8076 66.3999 34.2076 66.4999 34.4076 66.6999C34.5076 66.4999 34.7076 66.2999 34.7076 66.1999C34.7076 63.8999 34.5076 61.6999 34.6076 59.3999C34.8076 56.5999 36.0076 54.1999 38.6076 52.7999C39.7076 52.2999 40.8076 51.9999 42.0076 51.5999C46.4076 50.2999 49.7076 47.6999 51.6076 43.3999C51.7076 43.0999 52.0075 42.8999 52.3075 42.5999C52.4075 42.6999 52.5076 42.6999 52.7076 42.7999C53.0076 44.9999 53.4076 47.0999 53.6076 49.2999C54.2076 55.1999 51.9075 59.8999 47.3075 63.2999C44.8075 65.1999 41.9076 66.4999 39.2076 68.0999C35.8075 70.0999 33.9076 73.8999 34.5076 77.5999C34.7076 79.0999 35.2076 79.5999 36.7076 79.9999C38.8075 80.4999 40.9076 80.8999 42.9076 81.5999C48.9076 83.5999 51.9076 88.2999 53.7076 93.9999C54.3076 96.0999 55.3076 98.1999 56.1076 100.2C56.0076 100.2 55.6075 100.1 55.3075 99.8999C54.7075 99.4999 54.1076 98.8999 53.4076 98.6999C51.5076 98.0999 49.6076 97.4999 47.7076 97.1999C45.3075 96.7999 43.2076 96.1999 42.0076 93.8999C41.0076 91.9999 39.8075 90.0999 38.8075 88.1999C38.0075 86.6999 37.3076 85.0999 36.5076 83.4999C36.4076 83.1999 36.1075 83.0999 35.8075 82.7999C35.6075 83.0999 35.2076 83.2999 35.2076 83.5999C35.0076 85.3999 34.9075 87.1999 34.8075 88.8999C34.6075 92.6999 35.5076 96.2999 36.1076 99.9999C36.7076 103.3 36.5076 106.6 34.4076 109.5C33.6076 110.6 32.9076 111.8 32.5076 113.1C31.8076 115.2 31.4076 117.3 30.9076 119.4C30.7076 120 30.3076 120.6 30.0076 121.2C29.8076 121.2 29.7076 121.2 29.5076 121.2C30.7076 117.3 31.2075 113.7 26.3075 112C26.7075 111.7 27.0076 111.4 27.4076 111.2C27.5076 111.1 27.7075 111 27.8075 111C29.9075 110 31.0076 107.5 29.5076 105.4C28.7076 104.3 28.0076 103.2 27.2076 101.9C27.5076 101.9 27.7076 101.9 27.9076 102C29.7076 102.6 30.4075 104.2 31.3075 105.6C31.7075 106.2 32.3075 106.6 32.8075 107.1C33.3075 106.5 33.8076 105.9 34.2076 105.3C34.3076 105.2 34.3075 105.1 34.3075 105C34.4075 100.7 34.5076 96.4999 33.4076 92.2999C32.6076 89.2999 32.2076 86.1999 33.0076 83.1999C33.4076 81.7999 32.5075 81.4999 31.8075 80.9999C31.0075 80.4999 30.7075 81.3999 30.3075 81.7999C28.9075 83.3999 25.3076 84.4999 23.9076 83.5999C22.0076 82.3999 20.2076 81.0999 19.0076 79.0999C17.9076 77.2999 16.8076 75.3999 15.5076 73.6999C14.5076 72.3999 13.2076 71.1999 11.9076 69.7999C13.1076 69.9999 14.3076 69.7999 15.5076 69.6999ZM41.4076 88.9999C43.2076 89.9999 43.3076 90.1999 43.0076 91.8999C42.8076 93.5999 44.0075 94.5999 44.8075 95.7999C44.8075 95.8999 45.2075 95.8999 45.3075 95.7999C45.4075 95.6999 45.4076 95.3999 45.4076 95.2999C45.1076 94.8999 44.8076 94.4999 44.5076 93.9999C44.1076 93.2999 43.9076 92.4999 43.6076 91.6999C43.8076 91.5999 43.9076 91.4999 44.1076 91.2999C45.4076 92.0999 46.6076 92.8999 48.0076 93.7999C48.0076 92.1999 46.5076 91.9999 45.9076 90.7999C47.0076 90.9999 47.9076 91.0999 48.9076 91.2999C48.9076 91.0999 49.0076 90.8999 49.0076 90.7999C48.1076 90.4999 47.2075 90.1999 46.3075 90.0999C44.8075 89.7999 43.3076 89.3999 42.2076 87.8999C44.1076 87.6999 45.9076 87.3999 47.7076 88.0999C47.4076 87.1999 46.7075 86.6999 45.8075 86.6999C44.9075 86.5999 44.0076 86.5999 43.2076 86.6999C41.5076 86.8999 40.4076 85.8999 39.5076 84.6999C39.1076 84.0999 38.7076 83.3999 38.2076 82.7999C38.0076 82.5999 37.5076 82.4999 37.2076 82.3999C37.2076 82.7999 37.1075 83.1999 37.3075 83.4999C38.1075 84.6999 39.0076 85.9999 40.0076 87.0999C40.8076 88.0999 40.7075 89.1999 40.8075 90.3999C40.8075 90.7999 41.0076 91.0999 41.1076 91.4999C41.3076 91.3999 41.4076 91.3999 41.6076 91.2999C41.5076 90.4999 41.5076 89.7999 41.4076 88.9999ZM43.2076 60.5999C44.1076 59.8999 44.8076 59.1999 45.5076 58.5999C46.6076 57.6999 47.6075 56.6999 47.8075 55.0999C47.8075 54.6999 48.3076 54.2999 48.4076 53.7999C48.5076 53.5999 48.4076 53.1999 48.2076 52.9999C48.1076 52.8999 47.7076 52.7999 47.6076 52.7999C47.4076 52.9999 47.2076 53.2999 47.2076 53.4999C47.1076 55.5999 45.8075 57.0999 44.3075 58.2999C44.2075 58.3999 43.9076 58.2999 43.7076 58.2999C44.0076 56.7999 44.3076 55.2999 44.6076 53.7999C44.5076 53.7999 44.4076 53.6999 44.2076 53.6999C44.0076 53.9999 43.8076 54.2999 43.7076 54.6999C43.3076 55.8999 42.7076 57.0999 42.7076 58.2999C42.7076 60.1999 41.1076 60.4999 40.1076 61.4999C39.8076 61.7999 39.5076 61.9999 39.0076 62.3999C38.5076 60.6999 38.8076 59.1999 39.5076 57.6999C39.4076 57.5999 39.3076 57.5999 39.1076 57.4999C38.9076 57.6999 38.5076 57.9999 38.4076 58.2999C38.2076 59.1999 37.9076 60.0999 38.0076 60.9999C38.3076 62.5999 37.7076 63.6999 36.5076 64.6999C35.9076 65.2999 35.4076 66.0999 34.9076 66.7999C35.0076 66.8999 35.2076 67.0999 35.3076 67.1999C35.7076 66.8999 36.0076 66.4999 36.4076 66.1999C37.2076 65.4999 38.0076 64.8999 38.8076 64.1999C39.3076 63.6999 39.8076 63.0999 40.3076 62.5999C41.1076 61.7999 42.0076 61.3999 43.2076 61.6999C44.5076 61.8999 45.8076 61.7999 46.9076 60.8999C47.4076 60.4999 47.7076 59.7999 48.1076 59.2999C48.0076 59.1999 47.8076 59.0999 47.7076 58.9999C46.8076 60.5999 45.4076 61.2999 43.2076 60.5999ZM28.4076 42.3999C28.3076 41.9999 28.1076 41.4999 28.2076 41.2999C29.2076 39.6999 29.3076 37.8999 28.9076 36.0999C28.5076 37.5999 28.7076 39.2999 27.6076 40.6999C26.6076 38.7999 26.3075 37.0999 26.8075 35.1999C27.0075 34.3999 27.2075 33.6999 27.3075 32.8999C27.4075 32.4999 27.2076 32.1999 27.1076 31.7999C27.0076 31.7999 26.9075 31.7999 26.8075 31.7999C26.8075 32.0999 26.7076 32.4999 26.7076 32.7999C26.6076 32.8999 26.5076 32.9999 26.4076 32.9999C26.3076 32.7999 26.3076 32.5999 26.2076 32.3999C25.9076 30.9999 25.9076 29.4999 25.4076 28.0999C25.0076 26.9999 24.1076 25.9999 23.4076 24.9999C23.4076 24.8999 22.7076 25.0999 22.7076 25.1999C22.7076 25.5999 22.7076 26.1999 22.9076 26.2999C24.4076 27.1999 24.9076 28.6999 25.1076 30.1999C25.4076 32.5999 25.5076 35.0999 25.7076 37.5999C25.7076 37.6999 25.6076 37.8999 25.5076 38.0999C24.6076 37.2999 23.8076 36.5999 23.0076 35.8999C23.0076 36.0999 23.0076 36.5999 23.2076 36.7999C24.1076 37.8999 25.2076 38.8999 26.1076 40.0999C26.9076 41.1999 27.6075 42.4999 28.3075 43.7999C28.4075 43.9999 28.5076 44.2999 28.6076 44.5999C28.8076 44.4999 29.1075 44.2999 29.3075 44.1999C29.0075 43.5999 28.7076 43.0999 28.4076 42.3999ZM20.0076 78.3999C20.7076 78.7999 21.4076 79.0999 22.1076 79.2999C23.5076 79.8999 25.0076 80.3999 26.4076 80.8999C27.7076 81.2999 29.1076 80.4999 29.2076 79.2999C29.2076 79.0999 29.1076 78.9999 29.0076 78.4999C28.7076 78.8999 28.6076 79.1999 28.4076 79.2999C27.9076 79.5999 27.3075 79.8999 26.8075 79.8999C26.2075 79.7999 25.5075 79.5999 25.3075 78.5999C25.0075 76.9999 24.5076 75.3999 24.0076 73.8999C23.8076 73.9999 23.6076 73.9999 23.4076 74.0999C23.8076 75.3999 24.2076 76.6999 24.5076 78.0999C24.4076 78.1999 24.3076 78.1999 24.2076 78.2999C24.0076 77.9999 23.7076 77.7999 23.5076 77.4999C22.4076 76.0999 21.4075 74.6999 20.3075 73.2999C19.8075 72.5999 19.1075 72.4999 18.3075 72.6999C18.0075 72.7999 17.6076 72.6999 17.2076 72.6999C16.9076 72.6999 16.7076 72.8999 16.4076 72.9999C16.6076 73.1999 16.9076 73.6999 17.0076 73.5999C19.8076 73.2999 20.8076 75.3999 22.1076 77.1999C22.3076 77.4999 22.5075 77.8999 22.8075 78.2999C21.3075 78.8999 20.6076 77.0999 18.9076 77.3999C19.5076 77.7999 19.7076 78.1999 20.0076 78.3999Z" fill="url(#paint5_radial_57_92)"/>
<path fill-rule="evenodd" clip-rule="evenodd" d="M16.2076 99.9999C15.6076 100.3 15.0076 100.6 14.4076 100.9C14.2076 101 14.0076 101 13.9076 101.1C13.4076 101.4 12.9076 101.5 12.5076 101.9C12.1076 102.2 12.0076 102.8 11.7076 103.2C10.2076 105.1 10.6076 107.1 11.4076 109.1C11.8076 110 12.0076 111 12.2076 112C12.7076 113.8 11.7076 115.2 10.9076 116.7C10.5076 117.4 10.3076 118.1 9.90756 118.8C8.70756 121.1 12.3076 126 15.4076 125.7C16.7076 125.6 18.1076 125.3 19.2076 124.7C21.1076 123.7 22.9076 122.7 24.5076 121.3C26.2076 119.8 27.9076 118 28.2076 115.5C28.2076 115.1 27.6076 114.3 27.1076 114.1C26.1076 113.8 25.1076 113.9 24.1076 113.8C23.7076 113.7 23.3076 113.6 22.9076 113.5C23.2076 113.1 23.3076 112.6 23.7076 112.4C24.9076 111.7 26.1076 111.2 27.2076 110.4C29.6076 108.9 29.4076 107.1 26.9076 105.7C24.4076 104.3 22.0076 102.8 19.5076 101.4C18.6076 100.9 17.4076 100.5 16.2076 99.9999Z" fill="url(#paint6_linear_57_92)"/>
<path fill-rule="evenodd" clip-rule="evenodd" d="M28.7732 117.751C27.1732 120.851 24.8732 123.051 21.9732 124.751C19.8732 125.951 17.8732 127.151 15.3732 127.251C14.1732 127.251 12.4732 128.551 12.3732 130.151C12.2732 131.851 12.1732 133.451 13.6732 134.751C14.6732 135.651 15.7732 135.951 16.7732 135.251C18.2732 134.351 19.8732 133.351 21.0732 132.051C22.7732 130.251 24.2732 128.251 25.5732 126.151C26.8732 124.051 27.7732 121.751 28.7732 119.551C28.9732 119.051 28.9732 118.451 29.0732 117.851C28.9732 117.851 28.8732 117.851 28.7732 117.751Z" fill="url(#paint7_linear_57_92)"/>
<path fill-rule="evenodd" clip-rule="evenodd" d="M26.4076 2.69991C26.3076 2.09991 26.3076 1.09991 25.2076 0.799911C24.5076 0.699911 23.1076 1.99991 23.1076 2.79991C23.1076 3.49991 24.2076 4.29991 25.1076 4.29991C25.8076 4.29991 26.4076 3.69991 26.4076 2.69991Z" fill="#FBB040"/>
<path fill-rule="evenodd" clip-rule="evenodd" d="M33.1076 19.4999C33.0076 17.5999 32.4076 16.4999 31.7076 16.7999C31.2076 16.9999 30.8076 17.6999 30.7076 18.2999C30.5076 18.9999 31.8076 20.0999 32.5076 19.9999C32.7076 19.8999 32.9076 19.5999 33.1076 19.4999Z" fill="#FBB040"/>
<path fill-rule="evenodd" clip-rule="evenodd" d="M5.80755 106.9C5.00755 106.3 4.20755 105.6 4.00755 105.7C3.40755 106.1 3.00755 106.8 2.60755 107.4C2.50755 107.6 3.30755 108.4 3.30755 108.3C4.20755 108 4.80755 107.5 5.80755 106.9Z" fill="#FBB040"/>
<path fill-rule="evenodd" clip-rule="evenodd" d="M0.807552 119.8C2.30755 120.8 3.70756 120.5 3.90756 119.2C4.00756 118.2 3.40756 117.7 2.50756 118.2C1.90756 118.6 1.40755 119.2 0.807552 119.8Z" fill="#FBB040"/>
<path fill-rule="evenodd" clip-rule="evenodd" d="M4.70755 113C4.00755 112.9 3.30755 112.8 2.70755 112.8C2.50755 112.8 2.20755 113.2 2.20755 113.4C2.20755 113.6 2.50755 114.1 2.70755 114C3.40755 114 4.10755 113.8 4.80755 113.7C4.70755 113.5 4.70755 113.3 4.70755 113Z" fill="#FBB040"/>
<path fill-rule="evenodd" clip-rule="evenodd" d="M29.4076 44.2999C29.1076 43.6999 28.7076 43.0999 28.5076 42.4999C28.4076 42.0999 28.2075 41.5999 28.3075 41.3999C29.3075 39.7999 29.4076 37.9999 29.0076 36.1999C28.6076 37.6999 28.8076 39.3999 27.7076 40.7999C26.7076 38.8999 26.4076 37.1999 26.9076 35.2999C27.1076 34.4999 27.3076 33.7999 27.4076 32.9999C27.5076 32.5999 27.3076 32.2999 27.2076 31.8999C27.1076 31.8999 27.0076 31.8999 26.9076 31.8999C26.9076 32.1999 26.8075 32.5999 26.8075 32.8999C26.7075 32.9999 26.6076 33.0999 26.5076 33.0999C26.4076 32.8999 26.4075 32.6999 26.3075 32.4999C26.0075 31.0999 26.0076 29.5999 25.5076 28.1999C25.1076 27.0999 24.2076 26.0999 23.5076 25.0999C23.5076 24.9999 22.8075 25.1999 22.8075 25.2999C22.8075 25.6999 22.8076 26.2999 23.0076 26.3999C24.5076 27.2999 25.0076 28.7999 25.2076 30.2999C25.5076 32.6999 25.6075 35.1999 25.8075 37.6999C25.8075 37.7999 25.7076 37.9999 25.6076 38.1999C24.7076 37.3999 23.9076 36.6999 23.1076 35.9999C23.1076 36.1999 23.1075 36.6999 23.3075 36.8999C24.2075 37.9999 25.3076 38.9999 26.2076 40.1999C27.0076 41.2999 27.7076 42.5999 28.4076 43.8999C28.5076 44.0999 28.6076 44.3999 28.7076 44.6999C28.9076 44.5999 29.1076 44.3999 29.4076 44.2999Z" fill="black"/>
<path fill-rule="evenodd" clip-rule="evenodd" d="M19.1076 77.2999C19.5076 77.7999 19.7076 78.1999 20.1076 78.3999C20.8076 78.7999 21.5076 79.0999 22.2076 79.2999C23.6076 79.8999 25.1076 80.3999 26.5076 80.8999C27.8076 81.2999 29.2075 80.4999 29.3075 79.2999C29.3075 79.0999 29.2076 78.9999 29.1076 78.4999C28.8076 78.8999 28.7076 79.1999 28.5076 79.2999C28.0076 79.5999 27.4076 79.8999 26.9076 79.8999C26.3076 79.7999 25.6076 79.5999 25.4076 78.5999C25.1076 76.9999 24.6076 75.3999 24.1076 73.8999C23.9076 73.9999 23.7076 73.9999 23.5076 74.0999C23.9076 75.3999 24.3076 76.6999 24.6076 78.0999C24.5076 78.1999 24.4075 78.1999 24.3075 78.2999C24.1075 77.9999 23.8076 77.7999 23.6076 77.4999C22.5076 76.0999 21.5076 74.6999 20.4076 73.2999C19.9076 72.5999 19.2076 72.4999 18.4076 72.6999C18.1076 72.7999 17.7075 72.6999 17.3075 72.6999C17.0075 72.6999 16.8076 72.8999 16.5076 72.9999C16.7076 73.1999 17.0076 73.6999 17.1076 73.5999C19.9076 73.2999 20.9076 75.3999 22.2076 77.1999C22.4076 77.4999 22.6076 77.8999 22.9076 78.2999C21.5076 78.7999 20.8076 76.9999 19.1076 77.2999Z" fill="black"/>
<defs>
<linearGradient id="paint0_linear_57_92" x1="54.2391" y1="159.863" x2="38.6806" y2="159.183" gradientUnits="userSpaceOnUse">
<stop offset="0.005618" stop-color="#FCE6F0"/>
<stop offset="0.4494" stop-color="#F9C9DE"/>
<stop offset="1" stop-color="#9572D0"/>
</linearGradient>
<radialGradient id="paint1_radial_57_92" cx="0" cy="0" r="1" gradientUnits="userSpaceOnUse" gradientTransform="translate(32.9744 185.2) rotate(0.601644) scale(38.2016 38.2016)">
<stop offset="0.005618" stop-color="#B1F377"/>
<stop offset="0.4494" stop-color="#B2D66B"/>
<stop offset="1" stop-color="#84944B"/>
</radialGradient>
<linearGradient id="paint2_linear_57_92" x1="56.9609" y1="144.94" x2="38.227" y2="144.12" gradientUnits="userSpaceOnUse">
<stop offset="0.005618" stop-color="#FCE6F0"/>
<stop offset="0.4494" stop-color="#F9C9DE"/>
<stop offset="1" stop-color="#9572D0"/>
</linearGradient>
<linearGradient id="paint3_linear_57_92" x1="54.5974" y1="131.351" x2="38.372" y2="130.641" gradientUnits="userSpaceOnUse">
<stop offset="0.005618" stop-color="#FCE6F0"/>
<stop offset="0.4494" stop-color="#F9C9DE"/>
<stop offset="1" stop-color="#9572D0"/>
</linearGradient>
<linearGradient id="paint4_linear_57_92" x1="12.8341" y1="97.7744" x2="28.3926" y2="98.455" gradientUnits="userSpaceOnUse">
<stop offset="0.005618" stop-color="#FCE6F0"/>
<stop offset="0.4494" stop-color="#F9C9DE"/>
<stop offset="1" stop-color="#9572D0"/>
</linearGradient>
<radialGradient id="paint5_radial_57_92" cx="0" cy="0" r="1" gradientUnits="userSpaceOnUse" gradientTransform="translate(34.0988 72.4377) rotate(-179.398) scale(38.2016 38.2016)">
<stop offset="0.005618" stop-color="#B1F377"/>
<stop offset="0.4494" stop-color="#B2D66B"/>
<stop offset="1" stop-color="#84944B"/>
</radialGradient>
<linearGradient id="paint6_linear_57_92" x1="10.1123" y1="112.698" x2="28.8463" y2="113.517" gradientUnits="userSpaceOnUse">
<stop offset="0.005618" stop-color="#FCE6F0"/>
<stop offset="0.4494" stop-color="#F9C9DE"/>
<stop offset="1" stop-color="#9572D0"/>
</linearGradient>
<linearGradient id="paint7_linear_57_92" x1="12.4759" y1="126.287" x2="28.7013" y2="126.997" gradientUnits="userSpaceOnUse">
<stop offset="0.005618" stop-color="#FCE6F0"/>
<stop offset="0.4494" stop-color="#F9C9DE"/>
<stop offset="1" stop-color="#9572D0"/>
</linearGradient>
</defs>
</svg>
