<svg width="92" height="181" viewBox="0 0 92 181" fill="none" xmlns="http://www.w3.org/2000/svg">
<path fill-rule="evenodd" clip-rule="evenodd" d="M50.4631 174.243C50.2631 174.443 49.8631 174.843 49.7631 175.243C49.5631 176.043 50.5631 177.443 51.0631 177.143C51.5631 176.943 52.1631 176.243 52.2631 175.743C52.3631 174.943 51.7631 174.343 50.4631 174.243Z" fill="#FBB040"/>
<path fill-rule="evenodd" clip-rule="evenodd" d="M36.2631 153.443C34.5631 152.943 33.4631 153.343 33.1631 154.343C32.9631 155.143 33.3631 155.643 34.1631 155.843C36.0631 156.043 35.2631 154.143 36.2631 153.443Z" fill="#FBB040"/>
<path fill-rule="evenodd" clip-rule="evenodd" d="M50.9631 148.243C51.5631 148.843 51.9631 149.243 52.4631 149.743C52.8631 149.343 53.4631 149.043 53.5631 148.543C53.7631 147.543 53.0631 146.343 52.4631 146.543C51.9631 146.743 51.5631 147.443 50.9631 148.243Z" fill="#FBB040"/>
<path fill-rule="evenodd" clip-rule="evenodd" d="M39.7631 168.143C38.5631 168.043 37.6631 168.043 36.8631 168.043C36.8631 168.543 36.7631 169.243 37.0631 169.443C37.4631 169.743 38.2631 169.943 38.6631 169.743C39.0631 169.543 39.2631 168.843 39.7631 168.143Z" fill="#FBB040"/>
<path fill-rule="evenodd" clip-rule="evenodd" d="M49.4631 89.4427C49.5631 90.1427 49.5631 90.9427 49.6631 91.7427C47.8631 90.7427 47.7631 90.5427 48.0631 88.8427C48.2631 87.1427 47.0631 86.1427 46.2631 84.9427C46.2631 84.8427 45.8631 84.8427 45.7631 84.9427C45.6631 85.0427 45.6631 85.3427 45.6631 85.4427C45.9631 85.8427 46.2631 86.2427 46.5631 86.7427C46.9631 87.4427 47.1631 88.2427 47.4631 89.0427C47.2631 89.1427 47.1631 89.2427 46.9631 89.4427C45.6631 88.6427 44.4631 87.8427 43.0631 86.9427C43.0631 88.5427 44.5631 88.7427 45.1631 89.9427C44.0631 89.7427 43.1631 89.6427 42.1631 89.4427C42.1631 89.6427 42.0631 89.8427 42.0631 89.9427C42.9631 90.2427 43.8631 90.5427 44.7631 90.6427C46.2631 90.9427 47.7631 91.3427 48.8631 92.8427C46.9631 93.0427 45.1631 93.3427 43.3631 92.6427C43.6631 93.5427 44.3631 94.0427 45.2631 94.0427C46.1631 94.1427 47.0631 94.1427 47.8631 94.0427C49.5631 93.8427 50.6631 94.8427 51.5631 96.0427C51.9631 96.6427 52.3631 97.3427 52.8631 97.9427C53.0631 98.1427 53.5631 98.2427 53.8631 98.3427C53.8631 97.9427 53.9631 97.5427 53.7631 97.2427C52.9631 96.0427 52.0631 94.7427 51.0631 93.6427C50.2631 92.6427 50.3631 91.5427 50.2631 90.3427C50.2631 89.9427 50.0631 89.6427 49.9631 89.2427C49.7631 89.3427 49.6631 89.3427 49.4631 89.4427Z" fill="black"/>
<path fill-rule="evenodd" clip-rule="evenodd" d="M43.1631 121.743C44.2631 120.043 45.6631 119.343 47.8631 120.043C46.9631 120.743 46.2631 121.443 45.5631 122.043C44.4631 122.943 43.4631 123.943 43.2631 125.543C43.2631 125.943 42.7631 126.343 42.6631 126.843C42.5631 127.043 42.6631 127.443 42.8631 127.643C42.9631 127.743 43.3631 127.843 43.4631 127.843C43.6631 127.643 43.8631 127.343 43.8631 127.143C43.9631 125.043 45.2631 123.543 46.7631 122.343C46.8631 122.243 47.1631 122.343 47.3631 122.343C47.0631 123.843 46.7631 125.343 46.4631 126.843C46.5631 126.843 46.6631 126.943 46.8631 126.943C47.0631 126.643 47.2631 126.343 47.3631 125.943C47.7631 124.743 48.3631 123.543 48.3631 122.343C48.3631 120.443 49.9631 120.143 50.9631 119.143C51.2631 118.843 51.5631 118.643 52.0631 118.243C52.5631 119.943 52.2631 121.443 51.5631 122.943C51.6631 123.043 51.7631 123.043 51.9631 123.143C52.1631 122.943 52.5631 122.643 52.6631 122.343C52.8631 121.443 53.1631 120.543 53.0631 119.643C52.7631 118.043 53.3631 116.943 54.5631 115.943C55.1631 115.343 55.6631 114.543 56.1631 113.843C56.0631 113.743 55.8631 113.543 55.7631 113.443C55.3631 113.743 55.0631 114.143 54.6631 114.443C53.8631 115.143 53.0631 115.743 52.2631 116.443C51.7631 116.943 51.2631 117.543 50.7631 118.043C49.9631 118.843 49.0631 119.243 47.8631 118.943C46.5631 118.743 45.2631 118.843 44.1631 119.743C43.6631 120.143 43.3631 120.843 42.9631 121.343C42.8631 121.543 42.9631 121.643 43.1631 121.743Z" fill="black"/>
<path fill-rule="evenodd" clip-rule="evenodd" d="M77.1631 80.5427C77.1631 80.5427 74.7631 81.1427 74.0631 80.9427C73.3631 80.7427 64.1631 75.4427 63.6631 75.4427C63.1631 75.4427 63.4631 75.2427 63.5631 76.1427C63.6631 77.0427 64.4631 77.7427 64.5631 78.1427C64.6631 78.4427 63.6631 78.8427 63.1631 78.8427C62.7631 78.8427 62.6631 79.6427 63.0631 80.0427C63.3631 80.3427 68.0631 84.3427 68.3631 85.3427C68.6631 86.3427 71.7631 89.8427 73.5631 89.4427C75.3631 89.0427 78.1631 86.7427 78.2631 85.4427C78.1631 84.0427 77.9631 81.0427 77.1631 80.5427Z" fill="url(#paint0_linear_57_92)"/>
<path fill-rule="evenodd" clip-rule="evenodd" d="M55.2631 93.5427C55.3631 91.8427 55.5631 90.1427 55.3631 88.4427C54.9631 85.1427 54.2631 81.9427 53.8631 78.6427C53.5631 75.5427 54.0631 72.6427 55.9631 70.0427C56.6631 69.1427 57.2631 68.1427 57.5631 67.0427C58.2631 64.8427 58.7631 62.5427 59.4631 60.2427C59.8631 58.9427 60.3631 57.4427 62.2631 57.5427C62.4631 57.5427 62.7631 57.2427 62.9631 56.9427C63.4631 56.1427 63.9631 55.2427 64.3631 54.3427C66.2631 50.8427 68.8631 47.7427 72.0631 45.3427C74.4631 43.4427 76.0631 43.7427 78.0631 45.1427C80.4631 46.8427 79.7631 52.4427 77.5631 53.7427C81.5631 56.6427 82.3631 59.5427 81.4631 62.4427C82.9631 62.3427 84.3631 62.2427 85.9631 62.1427C85.7631 60.9427 86.1631 59.9427 87.2631 59.2427C88.1631 58.7427 89.9631 58.7427 90.6631 59.5427C91.5631 60.5427 90.7631 61.3427 90.2631 62.0427C89.4631 63.1427 88.5631 63.9427 86.8631 63.6427C85.2631 63.3427 83.5631 63.5427 81.8631 63.4427C80.6631 63.3427 80.4631 64.2427 80.1631 65.0427C80.9631 65.0427 81.7631 64.9427 82.4631 65.0427C83.4631 65.1427 84.1631 66.0427 84.9631 66.2427C85.6631 66.4427 86.6631 65.3427 87.5631 65.2427C88.1631 65.1427 89.0631 65.5427 89.4631 66.0427C90.0631 66.9427 89.5631 68.4427 88.7631 68.8427C87.6631 69.4427 85.4631 68.9427 84.9631 68.0427C83.8631 66.0427 81.1631 65.5427 79.6631 67.1427C79.2631 67.5427 79.2631 68.6427 79.4631 69.3427C79.5631 69.7427 80.1631 70.0427 80.5631 70.3427C81.4631 70.8427 82.4631 71.1427 83.3631 71.6427C84.1631 72.1427 84.6631 72.5427 85.5631 71.7427C86.2631 71.0427 87.4631 70.5427 88.3631 71.4427C88.8631 71.9427 88.9631 72.8427 88.9631 73.6427C88.9631 74.0427 88.4631 74.5427 88.2631 74.9427C87.8631 75.5427 87.4631 76.3427 86.6631 76.0427C85.8631 75.7427 84.9631 75.2427 84.6631 74.5427C83.8631 72.6427 82.0631 72.4427 80.6631 71.4427C80.6631 71.8427 80.7631 72.0427 80.7631 72.2427C80.8631 73.4427 81.3631 74.8427 80.9631 75.8427C80.4631 77.3427 79.2631 78.6427 78.3631 80.1427C78.2631 80.3427 78.0631 80.6427 78.0631 80.9427C78.1631 81.9427 78.5631 83.0427 78.5631 84.0427C78.6631 86.8427 76.0631 89.6427 73.2631 89.5427C71.2631 89.5427 69.6631 88.7427 68.5631 86.9427C67.0631 84.4427 65.4631 81.9427 62.8631 80.4427C62.7631 80.3427 62.2631 79.2427 62.2631 79.0427C62.1631 78.6427 63.3631 79.6427 63.5631 79.8427C64.8631 80.9427 66.1631 82.1427 67.2631 83.3427C68.2631 84.4427 68.9631 85.8427 69.8631 87.0427C70.8631 88.2427 72.2631 88.6427 73.6631 88.2427C75.2631 87.7427 77.2631 87.3427 77.3631 85.0427C77.4631 84.2427 77.4631 83.4427 77.3631 82.7427C77.0631 80.9427 77.0631 81.0427 75.2631 81.1427C74.4631 81.2427 73.4631 81.2427 72.7631 80.9427C70.6631 79.8427 68.6631 78.6427 66.5631 77.4427C65.5631 76.8427 64.4631 76.2427 63.4631 75.7427C63.3631 75.8427 63.2631 75.9427 63.2631 76.0427C63.7631 76.4427 64.2631 76.8427 64.7631 77.3427C65.0631 77.6427 65.2631 78.1427 65.5631 78.5427C65.1631 78.7427 64.6631 79.1427 64.2631 79.1427C62.6631 79.3427 61.4631 78.7427 60.5631 77.4427C59.7631 76.3427 59.0631 75.1427 58.1631 73.8427C57.9631 74.4427 57.6631 74.7427 57.6631 75.1427C57.5631 79.0427 57.4631 83.0427 58.3631 86.9427C59.0631 89.8427 59.7631 92.7427 59.1631 95.8427C59.0631 96.1427 59.0631 96.4427 59.1631 96.6427C59.2631 96.9427 59.4631 97.2427 59.6631 97.3427C59.7631 97.4427 60.0631 97.1427 60.2631 96.9427C62.2631 95.3427 64.4631 94.4427 66.9631 95.1427C69.0631 95.7427 70.5631 97.3427 71.8631 98.9427C73.1631 100.643 74.0631 102.643 75.2631 104.343C76.6631 106.443 78.2631 108.443 80.8631 109.343C81.0631 109.443 81.4631 109.843 81.3631 110.043C81.2631 110.343 80.9631 110.743 80.6631 110.843C77.8631 111.243 75.1631 111.743 72.3631 111.943C71.2631 112.043 70.0631 111.743 68.9631 111.443C65.9631 110.543 63.6631 108.643 61.7631 106.143C60.9631 105.143 60.0631 104.343 59.1631 103.543C59.0631 103.643 58.8631 103.643 58.7631 103.743C58.8631 106.343 58.3631 109.043 59.4631 111.543C60.9631 115.043 62.9631 118.443 63.1631 122.343C63.3631 125.443 63.3631 128.643 63.2631 131.743C63.1631 133.443 63.2631 133.643 64.7631 134.543C66.1631 135.343 67.5631 136.243 68.3631 137.743C69.8631 140.543 70.2631 143.543 70.3631 146.643C70.4631 148.643 70.6631 150.643 70.9631 152.643C71.2631 154.743 72.0631 156.743 73.9631 157.943C73.7631 158.843 73.3631 159.043 72.5631 158.643C71.9631 158.343 71.3631 158.043 70.7631 158.043C68.7631 157.843 66.7631 157.743 65.1631 156.443C63.2631 154.943 61.1631 153.643 59.8631 151.843C57.8631 149.143 57.0631 145.743 56.7631 142.343C56.4631 139.543 56.5631 136.843 58.6631 134.643C59.2631 133.943 59.7631 132.943 60.0631 131.943C60.2631 131.043 60.2631 130.143 60.1631 129.243C59.7631 126.643 59.2631 124.043 58.7631 121.343C58.5631 120.443 58.2631 119.543 57.9631 118.643C57.7631 118.643 57.6631 118.643 57.4631 118.743C57.4631 119.443 57.4631 120.243 57.3631 120.943C56.9631 123.943 55.7631 126.443 53.2631 128.143C52.5631 128.643 52.1631 129.043 52.1631 129.843C52.1631 133.543 50.5631 136.643 48.5631 139.643C47.6631 141.043 46.7631 142.443 45.6631 144.143C48.1631 143.143 48.7631 143.043 49.9631 143.943C50.7631 144.543 51.5631 145.243 52.6631 144.843C52.8631 144.743 53.1631 144.943 53.3631 145.043C54.5631 145.943 54.7631 148.943 53.6631 150.043C52.8631 150.943 51.0631 150.543 50.7631 149.343C50.5631 148.543 50.4631 147.643 50.5631 146.843C50.7631 145.843 50.2631 145.343 49.5631 144.943C48.7631 144.443 47.8631 143.743 46.8631 144.543C46.4631 144.843 45.9631 144.843 45.4631 144.943C45.3631 144.843 45.2631 144.743 45.1631 144.643C44.7631 146.343 44.0631 147.943 44.0631 149.643C44.0631 154.343 45.5631 158.543 48.7631 162.143C49.3631 162.843 49.6631 162.743 50.4631 162.343C51.5631 161.743 52.8631 161.343 54.1631 161.143C55.0631 160.943 56.0631 161.143 56.7631 161.243C57.1631 160.443 57.3631 159.443 57.8631 159.343C58.4631 159.143 59.5631 159.343 60.0631 159.843C60.7631 160.343 61.4631 161.343 61.4631 162.043C61.4631 162.943 60.7631 164.043 60.1631 164.743C59.5631 165.343 58.1631 164.543 57.5631 163.643C57.3631 163.343 57.1631 163.043 56.8631 162.843C55.2631 161.843 51.7631 162.343 50.3631 163.743C50.4631 163.843 50.4631 164.043 50.5631 164.143C52.9631 166.943 55.8631 169.043 59.0631 170.843C61.8631 172.443 64.5631 174.143 67.5631 175.243C68.1631 175.443 68.9631 176.243 69.1631 176.843C69.6631 178.343 67.7631 180.643 66.1631 180.643C65.7631 180.643 65.1631 180.443 64.8631 180.143C63.5631 179.043 63.3631 177.443 64.3631 175.243C60.7631 173.143 57.2631 171.043 53.7631 168.943C52.1631 170.743 52.4631 172.643 53.1631 174.343C53.7631 175.643 53.3631 176.343 52.7631 177.343C52.1631 178.243 51.4631 178.343 50.5631 177.943C49.1631 177.343 48.4631 174.743 49.2631 173.443C49.3631 173.243 49.6631 173.043 49.7631 173.043C51.6631 173.143 51.6631 171.743 51.9631 170.443C52.0631 170.043 52.1631 169.643 52.3631 169.343C52.9631 168.443 52.6631 167.943 51.9631 167.343C50.0631 165.343 48.1631 163.243 46.4631 161.043C45.5631 159.843 43.8631 159.343 42.7631 160.443C41.1631 161.943 39.9631 163.743 40.2631 166.143C40.3631 166.843 40.3631 167.543 40.3631 168.143C40.3631 170.243 38.6631 171.343 36.9631 170.343C36.4631 170.043 36.0631 169.243 35.8631 168.543C35.3631 166.943 36.4631 165.843 37.9631 166.443C38.8631 166.743 39.1631 166.543 39.2631 165.643C39.3631 163.543 40.2631 161.643 41.8631 160.143C42.6631 159.343 43.8631 159.043 44.9631 158.443C44.7631 157.743 44.4631 156.943 44.1631 156.043C43.8631 155.143 43.6631 154.243 43.3631 153.343C43.2631 153.043 43.0631 152.643 42.7631 152.443C41.1631 151.443 39.5631 152.043 38.0631 152.443C36.9631 152.743 36.8631 153.643 36.5631 154.543C36.2631 155.343 35.6631 156.243 34.9631 156.543C34.0631 156.943 32.3631 155.843 32.1631 154.843C31.8631 153.343 32.4631 152.343 33.7631 151.843C34.4631 151.543 35.1631 151.343 35.8631 151.943C35.9631 152.043 36.3631 152.143 36.4631 152.043C38.4631 150.843 40.5631 150.243 42.9631 151.243C42.8631 146.843 44.7631 143.343 47.1631 140.043C48.7631 137.843 50.1631 135.543 50.9631 132.943C51.3631 131.643 51.3631 130.243 51.5631 128.743C49.9631 129.243 48.5631 129.543 47.2631 130.143C43.3631 131.943 40.4631 134.743 39.5631 139.043C39.4631 139.343 39.1631 139.543 38.9631 139.743C38.7631 139.543 38.4631 139.343 38.3631 139.043C37.7631 136.743 36.9631 134.443 36.6631 132.143C35.6631 125.443 37.7631 119.743 43.2631 115.643C45.8631 113.743 48.8631 112.343 51.6631 110.543C54.4631 108.743 55.7631 106.043 55.6631 102.743C55.6631 101.943 55.2631 101.343 54.4631 101.043C53.2631 100.743 52.0631 100.243 50.7631 100.043C47.7631 99.5427 45.0631 98.5427 42.8631 96.5427C39.7631 93.7427 37.7631 90.3427 36.7631 86.3427C35.9631 83.2427 34.7631 80.2427 32.1631 78.0427C31.9631 77.8427 31.9631 77.3427 32.0631 77.1427C32.1631 77.0427 32.6631 76.9427 32.8631 77.0427C33.5631 77.3427 34.2631 77.6427 34.8631 78.0427C37.5631 79.8427 40.2631 81.2427 43.6631 81.3427C44.9631 81.3427 46.2631 81.8427 47.3631 82.4427C50.1631 83.7427 51.1631 86.7427 52.6631 89.1427C53.5631 90.5427 54.2631 92.1427 55.0631 93.8427C55.0631 93.9427 55.2631 93.7427 55.2631 93.5427ZM75.6631 106.443C74.3631 104.743 73.2631 102.943 72.1631 101.043C70.9631 99.0427 69.1631 97.7427 67.2631 96.5427C65.7631 95.6427 62.2631 96.8427 60.8631 98.3427C60.4631 98.7427 60.1631 99.6427 59.3631 99.1427C58.6631 98.6427 57.7631 98.3427 58.1631 96.9427C58.9631 93.9427 58.4631 90.8427 57.7631 87.8427C56.6631 83.6427 56.7631 79.4427 56.8631 75.1427C56.8631 75.0427 56.8631 74.8427 56.9631 74.8427C57.4631 74.2427 57.8631 73.6427 58.3631 73.0427C58.8631 73.5427 59.4631 73.9427 59.8631 74.5427C60.7631 75.9427 61.4631 77.5427 63.2631 78.1427C63.4631 78.2427 63.6631 78.1427 63.9631 78.2427C63.1631 77.0427 62.3631 75.8427 61.6631 74.7427C60.1631 72.6427 61.3631 70.1427 63.3631 69.1427C63.4631 69.0427 63.6631 69.0427 63.7631 68.9427C64.0631 68.7427 64.3631 68.4427 64.8631 68.1427C59.9631 66.4427 60.4631 62.8427 61.6631 58.9427C61.4631 58.9427 61.3631 58.9427 61.1631 58.9427C60.8631 59.5427 60.4631 60.1427 60.2631 60.7427C59.6631 62.8427 59.2631 65.0427 58.6631 67.0427C58.2631 68.3427 57.5631 69.5427 56.7631 70.6427C54.5631 73.5427 54.4631 76.8427 55.0631 80.1427C55.6631 83.8427 56.5631 87.4427 56.3631 91.2427C56.2631 93.0427 56.1631 94.8427 55.9631 96.5427C55.9631 96.8427 55.5631 97.0427 55.3631 97.3427C55.1631 97.1427 54.8631 96.9427 54.6631 96.6427C53.8631 95.0427 53.1631 93.4427 52.3631 91.9427C51.3631 90.0427 50.1631 88.1427 49.1631 86.2427C47.9631 83.9427 45.7631 83.3427 43.4631 82.9427C41.5631 82.6427 39.5631 82.0427 37.7631 81.4427C37.0631 81.2427 36.5631 80.6427 35.8631 80.2427C35.5631 80.0427 35.1631 79.9427 35.0631 79.9427C35.8631 82.0427 36.7631 84.0427 37.4631 86.1427C39.1631 91.9427 42.2631 96.5427 48.2631 98.5427C50.2631 99.2427 52.4631 99.6427 54.4631 100.143C55.9631 100.543 56.4631 101.043 56.6631 102.543C57.2631 106.343 55.3631 110.043 51.9631 112.043C49.2631 113.643 46.3631 115.043 43.8631 116.843C39.2631 120.243 36.9631 124.943 37.5631 130.843C37.7631 133.043 38.1631 135.143 38.4631 137.343C38.5631 137.443 38.6631 137.443 38.8631 137.543C39.0631 137.343 39.3631 137.043 39.5631 136.743C41.4631 132.543 44.7631 129.943 49.1631 128.543C50.2631 128.243 51.4631 127.843 52.5631 127.343C55.2631 125.943 56.3631 123.543 56.5631 120.743C56.7631 118.543 56.5631 116.243 56.4631 113.943C56.4631 113.743 56.6631 113.543 56.7631 113.443C56.9631 113.643 57.3631 113.743 57.4631 113.943C58.3631 116.543 59.3631 119.043 59.9631 121.643C60.5631 124.443 60.9631 127.243 61.2631 130.143C61.4631 131.943 61.1631 133.643 59.9631 135.143C58.4631 136.943 57.5631 139.043 57.8631 141.543C58.3631 145.343 59.0631 149.143 61.4631 152.143C63.3631 154.543 65.9631 156.343 69.1631 156.843C70.0631 156.943 70.8631 157.143 71.8631 157.343C71.3631 156.043 70.8631 154.943 70.5631 153.843C70.1631 151.943 69.8631 149.943 69.7631 147.943C69.6631 144.843 69.3631 141.743 68.0631 138.843C67.3631 137.343 65.9631 136.443 64.6631 135.643C62.8631 134.643 62.4631 134.243 62.6631 132.143C63.0631 128.243 63.1631 124.443 62.3631 120.543C62.0631 119.043 61.4631 117.643 60.8631 116.143C60.1631 114.543 59.1631 113.043 58.5631 111.443C58.1631 110.243 58.2631 108.943 58.1631 107.643C58.0631 105.943 58.0631 104.143 58.0631 102.343C58.0631 102.143 58.2631 101.643 58.3631 101.643C58.6631 101.543 59.1631 101.643 59.3631 101.843C60.7631 103.143 62.0631 104.343 63.3631 105.743C65.3631 108.043 67.6631 110.143 70.7631 110.643C72.3631 110.943 73.9631 110.643 75.6631 110.443C76.8631 110.343 77.9631 110.043 79.2631 109.843C77.8631 108.943 76.6631 107.843 75.6631 106.443ZM76.6631 79.7427C76.8631 79.6427 77.0631 79.6427 77.1631 79.5427C77.6631 79.2427 78.1631 79.1427 78.5631 78.7427C78.9631 78.4427 79.0631 77.8427 79.3631 77.4427C80.8631 75.5427 80.4631 73.5427 79.6631 71.5427C79.2631 70.6427 79.0631 69.6427 78.8631 68.6427C78.3631 66.8427 79.3631 65.4427 80.1631 63.9427C80.5631 63.2427 80.7631 62.5427 81.1631 61.8427C82.3631 59.5427 78.7631 54.6427 75.6631 54.9427C74.3631 55.0427 72.9631 55.3427 71.8631 55.9427C69.9631 56.9427 68.1631 57.9427 66.5631 59.3427C64.8631 60.8427 63.1631 62.6427 62.8631 65.1427C62.8631 65.5427 63.4631 66.3427 63.9631 66.5427C64.9631 66.8427 65.9631 66.7427 66.9631 66.8427C67.3631 66.9427 67.7631 67.0427 68.1631 67.1427C67.8631 67.5427 67.7631 68.0427 67.3631 68.2427C66.1631 68.9427 64.9631 69.4427 63.8631 70.2427C61.4631 71.7427 61.6631 73.5427 64.1631 74.9427C66.6631 76.3427 69.0631 77.8427 71.5631 79.2427C72.6631 79.8427 73.7631 80.1427 75.0631 80.6427C75.4631 80.2427 76.0631 80.0427 76.6631 79.7427ZM69.2631 55.9427C71.3631 54.7427 73.3631 53.5427 75.8631 53.4427C77.0631 53.4427 78.7631 52.1427 78.8631 50.5427C78.9631 48.8427 79.0631 47.2427 77.5631 45.9427C76.5631 45.0427 75.4631 44.7427 74.4631 45.4427C72.9631 46.3427 71.3631 47.3427 70.1631 48.6427C68.4631 50.4427 66.9631 52.4427 65.6631 54.5427C64.3631 56.6427 63.4631 58.9427 62.4631 61.1427C62.2631 61.6427 62.2631 62.2427 62.1631 62.8427C62.2631 62.8427 62.3631 62.9427 62.5631 62.9427C63.9631 59.9427 66.2631 57.6427 69.2631 55.9427ZM65.8631 179.843C66.5631 179.943 67.9631 178.643 67.9631 177.843C67.9631 177.143 66.8631 176.343 65.9631 176.343C65.2631 176.343 64.6631 176.943 64.6631 177.943C64.7631 178.543 64.7631 179.543 65.8631 179.843ZM59.4631 163.843C59.9631 163.643 60.3631 162.943 60.4631 162.343C60.6631 161.643 59.3631 160.543 58.6631 160.643C58.3631 160.643 58.1631 160.943 58.0631 161.043C58.0631 162.943 58.7631 164.143 59.4631 163.843ZM49.7631 175.243C49.5631 176.043 50.5631 177.443 51.0631 177.143C51.5631 176.943 52.1631 176.243 52.2631 175.743C52.3631 174.943 51.7631 174.243 50.4631 174.143C50.2631 174.443 49.8631 174.843 49.7631 175.243ZM33.1631 154.243C32.9631 155.043 33.3631 155.543 34.1631 155.743C36.0631 156.043 35.2631 154.143 36.2631 153.443C34.4631 152.943 33.3631 153.343 33.1631 154.243ZM52.4631 149.743C52.8631 149.343 53.4631 149.043 53.5631 148.543C53.7631 147.543 53.0631 146.343 52.4631 146.543C51.9631 146.743 51.6631 147.443 50.9631 148.243C51.5631 148.843 52.0631 149.243 52.4631 149.743ZM86.9631 74.9427C87.5631 74.5427 87.9631 73.8427 88.3631 73.2427C88.4631 73.0427 87.6631 72.2427 87.6631 72.3427C86.9631 72.6427 86.2631 73.1427 85.2631 73.8427C86.0631 74.3427 86.8631 75.0427 86.9631 74.9427ZM87.1631 61.4427C87.0631 62.4427 87.6631 62.9427 88.5631 62.4427C89.1631 62.0427 89.6631 61.4427 90.2631 60.8427C88.7631 59.8427 87.3631 60.1427 87.1631 61.4427ZM36.8631 168.043C36.8631 168.543 36.7631 169.243 37.0631 169.443C37.4631 169.743 38.2631 169.943 38.6631 169.743C39.0631 169.543 39.2631 168.843 39.7631 168.143C38.4631 168.043 37.6631 168.043 36.8631 168.043ZM88.4631 67.8427C88.6631 67.8427 88.9631 67.4427 88.9631 67.2427C88.9631 67.0427 88.6631 66.5427 88.4631 66.6427C87.7631 66.6427 87.0631 66.8427 86.3631 66.9427C86.3631 67.1427 86.3631 67.4427 86.3631 67.6427C87.0631 67.7427 87.7631 67.8427 88.4631 67.8427Z" fill="black"/>
<path fill-rule="evenodd" clip-rule="evenodd" d="M75.5631 110.943C73.9631 111.043 72.2631 111.443 70.6631 111.143C67.5631 110.643 65.2631 108.543 63.2631 106.243C62.0631 104.843 60.6631 103.543 59.2631 102.343C59.0631 102.143 58.5631 102.143 58.2631 102.143C58.1631 102.143 57.9631 102.643 57.9631 102.843C57.9631 104.643 57.9631 106.343 58.0631 108.143C58.1631 109.443 58.0631 110.743 58.4631 111.943C59.0631 113.543 60.0631 115.043 60.7631 116.643C61.3631 118.043 61.9631 119.543 62.2631 121.043C63.0631 124.843 62.9631 128.743 62.5631 132.643C62.3631 134.643 62.7631 135.143 64.5631 136.143C65.9631 136.943 67.2631 137.743 67.9631 139.343C69.2631 142.243 69.5631 145.243 69.6631 148.443C69.7631 150.443 70.0631 152.443 70.4631 154.343C70.6631 155.443 71.2631 156.543 71.7631 157.843C70.7631 157.643 69.9631 157.543 69.0631 157.343C65.8631 156.843 63.3631 155.143 61.3631 152.643C58.9631 149.543 58.2631 145.843 57.7631 142.043C57.4631 139.543 58.3631 137.543 59.8631 135.643C61.0631 134.143 61.3631 132.443 61.1631 130.643C60.8631 127.843 60.5631 124.943 59.8631 122.143C59.2631 119.543 58.2631 116.943 57.3631 114.443C57.2631 114.243 56.8631 114.143 56.6631 113.943C56.5631 114.143 56.3631 114.343 56.3631 114.443C56.3631 116.743 56.5631 118.943 56.4631 121.243C56.2631 124.043 55.0631 126.443 52.4631 127.843C51.3631 128.343 50.2631 128.643 49.0631 129.043C44.6631 130.343 41.3631 132.943 39.4631 137.243C39.3631 137.543 39.0631 137.743 38.7631 138.043C38.6631 137.943 38.5631 137.943 38.3631 137.843C38.0631 135.643 37.6631 133.543 37.4631 131.343C36.8631 125.443 39.1631 120.743 43.7631 117.343C46.2631 115.443 49.1631 114.143 51.8631 112.543C55.2631 110.543 57.1631 106.743 56.5631 103.043C56.3631 101.543 55.8631 101.043 54.3631 100.643C52.2631 100.143 50.1631 99.7427 48.1631 99.0427C42.1631 97.0427 39.1631 92.3427 37.3631 86.6427C36.7631 84.5427 35.7631 82.4427 34.9631 80.4427C35.0631 80.4427 35.4631 80.5427 35.7631 80.7427C36.3631 81.1427 36.9631 81.7427 37.6631 81.9427C39.5631 82.5427 41.4631 83.1427 43.3631 83.4427C45.7631 83.8427 47.8631 84.4427 49.0631 86.7427C50.0631 88.6427 51.2631 90.5427 52.2631 92.4427C53.0631 93.9427 53.7631 95.5427 54.5631 97.1427C54.6631 97.4427 54.9631 97.5427 55.2631 97.8427C55.4631 97.5427 55.8631 97.3427 55.8631 97.0427C56.0631 95.2427 56.1631 93.4427 56.2631 91.7427C56.4631 87.9427 55.5631 84.3427 54.9631 80.6427C54.3631 77.3427 54.5631 74.0427 56.6631 71.1427C57.4631 70.0427 58.1631 68.8427 58.5631 67.5427C59.2631 65.4427 59.6631 63.3427 60.1631 61.2427C60.3631 60.6427 60.7631 60.0427 61.0631 59.4427C61.2631 59.4427 61.3631 59.4427 61.5631 59.4427C60.3631 63.3427 59.8631 66.9427 64.7631 68.6427C64.3631 68.9427 64.0631 69.2427 63.6631 69.4427C63.5631 69.5427 63.3631 69.6427 63.2631 69.6427C61.1631 70.6427 60.0631 73.1427 61.5631 75.2427C62.3631 76.3427 63.0631 77.4427 63.8631 78.7427C63.5631 78.7427 63.3631 78.7427 63.1631 78.6427C61.3631 78.0427 60.6631 76.4427 59.7631 75.0427C59.3631 74.4427 58.7631 74.0427 58.2631 73.5427C57.7631 74.1427 57.2631 74.7427 56.8631 75.3427C56.7631 75.4427 56.7631 75.5427 56.7631 75.6427C56.6631 79.9427 56.5631 84.1427 57.6631 88.3427C58.4631 91.3427 58.8631 94.4427 58.0631 97.4427C57.6631 98.8427 58.5631 99.1427 59.2631 99.6427C60.0631 100.143 60.3631 99.2427 60.7631 98.8427C62.1631 97.2427 65.7631 96.1427 67.1631 97.0427C69.0631 98.2427 70.8631 99.5427 72.0631 101.543C73.1631 103.343 74.2631 105.243 75.5631 106.943C76.5631 108.243 77.8631 109.443 79.1631 110.843C77.9631 110.643 76.7631 110.843 75.5631 110.943ZM49.6631 91.6427C47.8631 90.6427 47.7631 90.4427 48.0631 88.7427C48.2631 87.0427 47.0631 86.0427 46.2631 84.8427C46.2631 84.7427 45.8631 84.7427 45.7631 84.8427C45.6631 84.9427 45.6631 85.2427 45.6631 85.3427C45.9631 85.7427 46.2631 86.1427 46.5631 86.6427C46.9631 87.3427 47.1631 88.1427 47.4631 88.9427C47.2631 89.0427 47.1631 89.1427 46.9631 89.3427C45.6631 88.5427 44.4631 87.7427 43.0631 86.8427C43.0631 88.4427 44.5631 88.6427 45.1631 89.8427C44.0631 89.6427 43.1631 89.5427 42.1631 89.3427C42.1631 89.5427 42.0631 89.7427 42.0631 89.8427C42.9631 90.1427 43.8631 90.4427 44.7631 90.5427C46.2631 90.8427 47.7631 91.2427 48.8631 92.7427C46.9631 92.9427 45.1631 93.2427 43.3631 92.5427C43.6631 93.4427 44.3631 93.9427 45.2631 93.9427C46.1631 94.0427 47.0631 94.0427 47.8631 93.9427C49.5631 93.7427 50.6631 94.7427 51.5631 95.9427C51.9631 96.5427 52.3631 97.2427 52.8631 97.8427C53.0631 98.0427 53.5631 98.1427 53.8631 98.2427C53.8631 97.8427 53.9631 97.4427 53.7631 97.1427C52.9631 95.9427 52.0631 94.6427 51.0631 93.5427C50.2631 92.5427 50.3631 91.4427 50.2631 90.2427C50.2631 89.8427 50.0631 89.5427 49.9631 89.1427C49.7631 89.2427 49.6631 89.2427 49.4631 89.3427C49.5631 90.1427 49.5631 90.8427 49.6631 91.6427ZM47.8631 120.043C46.9631 120.743 46.2631 121.443 45.5631 122.043C44.4631 122.943 43.4631 123.943 43.2631 125.543C43.2631 125.943 42.7631 126.343 42.6631 126.843C42.5631 127.043 42.6631 127.443 42.8631 127.643C42.9631 127.743 43.3631 127.843 43.4631 127.843C43.6631 127.643 43.8631 127.343 43.8631 127.143C43.9631 125.043 45.2631 123.543 46.7631 122.343C46.8631 122.243 47.1631 122.343 47.3631 122.343C47.0631 123.843 46.7631 125.343 46.4631 126.843C46.5631 126.843 46.6631 126.943 46.8631 126.943C47.0631 126.643 47.2631 126.343 47.3631 125.943C47.7631 124.743 48.3631 123.543 48.3631 122.343C48.3631 120.443 49.9631 120.143 50.9631 119.143C51.2631 118.843 51.5631 118.643 52.0631 118.243C52.5631 119.943 52.2631 121.443 51.5631 122.943C51.6631 123.043 51.7631 123.043 51.9631 123.143C52.1631 122.943 52.5631 122.643 52.6631 122.343C52.8631 121.443 53.1631 120.543 53.0631 119.643C52.7631 118.043 53.3631 116.943 54.5631 115.943C55.1631 115.343 55.6631 114.543 56.1631 113.843C56.0631 113.743 55.8631 113.543 55.7631 113.443C55.3631 113.743 55.0631 114.143 54.6631 114.443C53.8631 115.143 53.0631 115.743 52.2631 116.443C51.7631 116.943 51.2631 117.543 50.7631 118.043C49.9631 118.843 49.0631 119.243 47.8631 118.943C46.5631 118.743 45.2631 118.843 44.1631 119.743C43.6631 120.143 43.3631 120.843 42.9631 121.343C43.0631 121.443 43.2631 121.543 43.3631 121.643C44.2631 120.043 45.6631 119.343 47.8631 120.043ZM62.6631 138.243C62.7631 138.643 62.9631 139.143 62.8631 139.343C61.8631 140.943 61.7631 142.743 62.1631 144.543C62.5631 143.043 62.3631 141.343 63.4631 139.943C64.4631 141.843 64.7631 143.543 64.2631 145.443C64.0631 146.243 63.8631 146.943 63.7631 147.743C63.6631 148.143 63.8631 148.443 63.9631 148.843C64.0631 148.843 64.1631 148.843 64.2631 148.843C64.2631 148.543 64.3631 148.143 64.3631 147.843C64.4631 147.743 64.5631 147.643 64.6631 147.643C64.7631 147.843 64.7631 148.043 64.8631 148.243C65.1631 149.643 65.1631 151.143 65.6631 152.543C66.0631 153.643 66.9631 154.643 67.6631 155.643C67.6631 155.743 68.3631 155.543 68.3631 155.443C68.3631 155.043 68.3631 154.443 68.1631 154.343C66.6631 153.443 66.1631 151.943 65.9631 150.443C65.6631 148.043 65.5631 145.543 65.3631 143.043C65.3631 142.943 65.4631 142.743 65.5631 142.543C66.4631 143.343 67.2631 144.043 68.0631 144.743C68.0631 144.543 68.0631 144.043 67.8631 143.843C66.9631 142.743 65.8631 141.743 64.9631 140.543C64.1631 139.443 63.4631 138.143 62.7631 136.843C62.6631 136.643 62.5631 136.343 62.4631 136.043C62.2631 136.143 61.9631 136.343 61.7631 136.443C62.0631 137.043 62.3631 137.543 62.6631 138.243ZM71.0631 102.243C70.3631 101.843 69.6631 101.543 68.9631 101.343C67.5631 100.743 66.0631 100.243 64.6631 99.7427C63.3631 99.3427 61.9631 100.143 61.8631 101.343C61.8631 101.543 61.9631 101.643 62.0631 102.143C62.3631 101.743 62.4631 101.443 62.6631 101.343C63.1631 101.043 63.7631 100.743 64.2631 100.743C64.8631 100.843 65.5631 101.043 65.7631 102.043C66.0631 103.643 66.5631 105.243 67.0631 106.743C67.2631 106.643 67.4631 106.643 67.6631 106.543C67.2631 105.243 66.8631 103.943 66.5631 102.543C66.6631 102.443 66.7631 102.443 66.8631 102.343C67.0631 102.643 67.3631 102.843 67.5631 103.143C68.6631 104.543 69.6631 105.943 70.7631 107.343C71.2631 108.043 71.9631 108.143 72.7631 107.943C73.0631 107.843 73.4631 107.943 73.8631 107.943C74.1631 107.943 74.3631 107.743 74.6631 107.643C74.4631 107.443 74.1631 106.943 74.0631 107.043C71.2631 107.343 70.2631 105.243 68.9631 103.443C68.7631 103.143 68.5631 102.743 68.2631 102.343C69.7631 101.743 70.4631 103.543 72.1631 103.243C71.5631 102.843 71.3631 102.443 71.0631 102.243Z" fill="url(#paint1_radial_57_92)"/>
<path fill-rule="evenodd" clip-rule="evenodd" d="M74.8631 80.6427C75.4631 80.3427 76.0631 80.0427 76.6631 79.7427C76.8631 79.6427 77.0631 79.6427 77.1631 79.5427C77.6631 79.2427 78.1631 79.1427 78.5631 78.7427C78.9631 78.4427 79.0631 77.8427 79.3631 77.4427C80.8631 75.5427 80.4631 73.5427 79.6631 71.5427C79.2631 70.6427 79.0631 69.6427 78.8631 68.6427C78.3631 66.8427 79.3631 65.4427 80.1631 63.9427C80.5631 63.2427 80.7631 62.5427 81.1631 61.8427C82.3631 59.5427 78.7631 54.6427 75.6631 54.9427C74.3631 55.0427 72.9631 55.3427 71.8631 55.9427C69.9631 56.9427 68.1631 57.9427 66.5631 59.3427C64.8631 60.8427 63.1631 62.6427 62.8631 65.1427C62.8631 65.5427 63.4631 66.3427 63.9631 66.5427C64.9631 66.8427 65.9631 66.7427 66.9631 66.8427C67.3631 66.9427 67.7631 67.0427 68.1631 67.1427C67.8631 67.5427 67.7631 68.0427 67.3631 68.2427C66.1631 68.9427 64.9631 69.4427 63.8631 70.2427C61.4631 71.7427 61.6631 73.5427 64.1631 74.9427C66.6631 76.3427 69.0631 77.8427 71.5631 79.2427C72.4631 79.7427 73.6631 80.1427 74.8631 80.6427Z" fill="url(#paint2_linear_57_92)"/>
<path fill-rule="evenodd" clip-rule="evenodd" d="M62.2974 62.8916C63.8974 59.7916 66.1974 57.5916 69.0974 55.8916C71.1974 54.6916 73.1974 53.4916 75.6974 53.3916C76.8974 53.3916 78.5974 52.0916 78.6974 50.4916C78.7974 48.7916 78.8974 47.1916 77.3974 45.8916C76.3974 44.9916 75.2974 44.6916 74.2974 45.3916C72.7974 46.2916 71.1974 47.2916 69.9974 48.5916C68.2974 50.3916 66.7974 52.3916 65.4974 54.4916C64.1974 56.5916 63.2974 58.8916 62.2974 61.0916C62.0974 61.5916 62.0974 62.1916 61.9974 62.7916C62.0974 62.7916 62.1974 62.7916 62.2974 62.8916Z" fill="url(#paint3_linear_57_92)"/>
<path fill-rule="evenodd" clip-rule="evenodd" d="M64.6631 177.943C64.7631 178.543 64.7631 179.543 65.8631 179.843C66.5631 179.943 67.9631 178.643 67.9631 177.843C67.9631 177.143 66.8631 176.343 65.9631 176.343C65.2631 176.343 64.6631 176.943 64.6631 177.943Z" fill="#FBB040"/>
<path fill-rule="evenodd" clip-rule="evenodd" d="M57.9631 161.143C58.0631 163.043 58.6631 164.143 59.3631 163.843C59.8631 163.643 60.2631 162.943 60.3631 162.343C60.5631 161.643 59.2631 160.543 58.5631 160.643C58.3631 160.743 58.1631 161.043 57.9631 161.143Z" fill="#FBB040"/>
<path fill-rule="evenodd" clip-rule="evenodd" d="M85.2631 73.7427C86.0631 74.3427 86.8631 75.0427 87.0631 74.9427C87.6631 74.5427 88.0631 73.8427 88.4631 73.2427C88.5631 73.0427 87.7631 72.2427 87.7631 72.3427C86.8631 72.6427 86.2631 73.1427 85.2631 73.7427Z" fill="#FBB040"/>
<path fill-rule="evenodd" clip-rule="evenodd" d="M90.2631 60.8427C88.7631 59.8427 87.3631 60.1427 87.1631 61.4427C87.0631 62.4427 87.6631 62.9427 88.5631 62.4427C89.1631 62.0427 89.6631 61.4427 90.2631 60.8427Z" fill="#FBB040"/>
<path fill-rule="evenodd" clip-rule="evenodd" d="M86.3631 67.6427C87.0631 67.7427 87.7631 67.8427 88.3631 67.8427C88.5631 67.8427 88.8631 67.4427 88.8631 67.2427C88.8631 67.0427 88.5631 66.5427 88.3631 66.6427C87.6631 66.6427 86.9631 66.8427 86.2631 66.9427C86.3631 67.1427 86.3631 67.3427 86.3631 67.6427Z" fill="#FBB040"/>
<path fill-rule="evenodd" clip-rule="evenodd" d="M61.6631 136.343C61.9631 136.943 62.3631 137.543 62.5631 138.143C62.6631 138.543 62.8631 139.043 62.7631 139.243C61.7631 140.843 61.6631 142.643 62.0631 144.443C62.4631 142.943 62.2631 141.243 63.3631 139.843C64.3631 141.743 64.6631 143.443 64.1631 145.343C63.9631 146.143 63.7631 146.843 63.6631 147.643C63.5631 148.043 63.7631 148.343 63.8631 148.743C63.9631 148.743 64.0631 148.743 64.1631 148.743C64.1631 148.443 64.2631 148.043 64.2631 147.743C64.3631 147.643 64.4631 147.543 64.5631 147.543C64.6631 147.743 64.6631 147.943 64.7631 148.143C65.0631 149.543 65.0631 151.043 65.5631 152.443C65.9631 153.543 66.8631 154.543 67.5631 155.543C67.5631 155.643 68.2631 155.443 68.2631 155.343C68.2631 154.943 68.2631 154.343 68.0631 154.243C66.5631 153.343 66.0631 151.843 65.8631 150.343C65.5631 147.943 65.4631 145.443 65.2631 142.943C65.2631 142.843 65.3631 142.643 65.4631 142.443C66.3631 143.243 67.1631 143.943 67.9631 144.643C67.9631 144.443 67.9631 143.943 67.7631 143.743C66.8631 142.643 65.7631 141.643 64.8631 140.443C64.0631 139.343 63.3631 138.043 62.6631 136.743C62.5631 136.543 62.4631 136.243 62.3631 135.943C62.1631 136.043 61.9631 136.243 61.6631 136.343Z" fill="black"/>
<path fill-rule="evenodd" clip-rule="evenodd" d="M71.9631 103.343C71.5631 102.843 71.3631 102.443 70.9631 102.243C70.2631 101.843 69.5631 101.543 68.8631 101.343C67.4631 100.743 65.9631 100.243 64.5631 99.7427C63.2631 99.3427 61.8631 100.143 61.7631 101.343C61.7631 101.543 61.8631 101.643 61.9631 102.143C62.2631 101.743 62.3631 101.443 62.5631 101.343C63.0631 101.043 63.6631 100.743 64.1631 100.743C64.7631 100.843 65.4631 101.043 65.6631 102.043C65.9631 103.643 66.4631 105.243 66.9631 106.743C67.1631 106.643 67.3631 106.643 67.5631 106.543C67.1631 105.243 66.7631 103.943 66.4631 102.543C66.5631 102.443 66.6631 102.443 66.7631 102.343C66.9631 102.643 67.2631 102.843 67.4631 103.143C68.5631 104.543 69.5631 105.943 70.6631 107.343C71.1631 108.043 71.8631 108.143 72.6631 107.943C72.9631 107.843 73.3631 107.943 73.7631 107.943C74.0631 107.943 74.2631 107.743 74.5631 107.643C74.3631 107.443 74.0631 106.943 73.9631 107.043C71.1631 107.343 70.1631 105.243 68.8631 103.443C68.6631 103.143 68.4631 102.743 68.1631 102.343C69.5631 101.843 70.2631 103.643 71.9631 103.343Z" fill="black"/>
<path fill-rule="evenodd" clip-rule="evenodd" d="M40.6076 6.40016C40.8076 6.20016 41.2076 5.80016 41.3076 5.40016C41.5076 4.60016 40.5076 3.20014 40.0076 3.50014C39.5076 3.70014 38.9076 4.40016 38.8076 4.90016C38.7076 5.70016 39.3076 6.30016 40.6076 6.40016Z" fill="#FBB040"/>
<path fill-rule="evenodd" clip-rule="evenodd" d="M54.8075 27.2002C56.5075 27.7002 57.6076 27.3002 57.9076 26.3002C58.1076 25.5002 57.7076 25.0002 56.9076 24.8002C55.0076 24.6002 55.8075 26.5002 54.8075 27.2002Z" fill="#FBB040"/>
<path fill-rule="evenodd" clip-rule="evenodd" d="M40.1076 32.4002C39.5076 31.8002 39.1076 31.4002 38.6076 30.9002C38.2076 31.3002 37.6076 31.6002 37.5076 32.1002C37.3076 33.1002 38.0076 34.3002 38.6076 34.1002C39.1076 33.9002 39.5076 33.2002 40.1076 32.4002Z" fill="#FBB040"/>
<path fill-rule="evenodd" clip-rule="evenodd" d="M51.3075 12.5001C52.5075 12.6001 53.4075 12.6001 54.2075 12.6001C54.2075 12.1001 54.3076 11.4001 54.0076 11.2001C53.6076 10.9001 52.8076 10.7002 52.4076 10.9002C52.0076 11.1002 51.8075 11.8001 51.3075 12.5001Z" fill="#FBB040"/>
<path fill-rule="evenodd" clip-rule="evenodd" d="M41.6076 91.2001C41.5076 90.5001 41.5076 89.7001 41.4076 88.9001C43.2076 89.9001 43.3076 90.1002 43.0076 91.8002C42.8076 93.5002 44.0075 94.5001 44.8075 95.7001C44.8075 95.8001 45.2075 95.8001 45.3075 95.7001C45.4075 95.6001 45.4076 95.3001 45.4076 95.2001C45.1076 94.8001 44.8076 94.4001 44.5076 93.9001C44.1076 93.2001 43.9076 92.4001 43.6076 91.6001C43.8076 91.5001 43.9076 91.4001 44.1076 91.2001C45.4076 92.0001 46.6076 92.8001 48.0076 93.7001C48.0076 92.1001 46.5076 91.9001 45.9076 90.7001C47.0076 90.9001 47.9076 91.0001 48.9076 91.2001C48.9076 91.0001 49.0076 90.8001 49.0076 90.7001C48.1076 90.4001 47.2075 90.1001 46.3075 90.0001C44.8075 89.7001 43.3076 89.3002 42.2076 87.8002C44.1076 87.6002 45.9076 87.3001 47.7076 88.0001C47.4076 87.1001 46.7075 86.6001 45.8075 86.6001C44.9075 86.5001 44.0076 86.5001 43.2076 86.6001C41.5076 86.8001 40.4076 85.8001 39.5076 84.6001C39.1076 84.0001 38.7076 83.3001 38.2076 82.7001C38.0076 82.5001 37.5076 82.4002 37.2076 82.3002C37.2076 82.7002 37.1075 83.1001 37.3075 83.4001C38.1075 84.6001 39.0076 85.9001 40.0076 87.0001C40.8076 88.0001 40.7075 89.1002 40.8075 90.3002C40.8075 90.7002 41.0076 91.0001 41.1076 91.4001C41.3076 91.3001 41.4076 91.3001 41.6076 91.2001Z" fill="black"/>
<path fill-rule="evenodd" clip-rule="evenodd" d="M47.9076 58.9001C46.8076 60.6001 45.4076 61.3001 43.2076 60.6001C44.1076 59.9001 44.8076 59.2001 45.5076 58.6001C46.6076 57.7001 47.6075 56.7001 47.8075 55.1001C47.8075 54.7001 48.3076 54.3002 48.4076 53.8002C48.5076 53.6002 48.4076 53.2001 48.2076 53.0001C48.1076 52.9001 47.7076 52.8002 47.6076 52.8002C47.4076 53.0002 47.2076 53.3001 47.2076 53.5001C47.1076 55.6001 45.8075 57.1002 44.3075 58.3002C44.2075 58.4002 43.9076 58.3002 43.7076 58.3002C44.0076 56.8002 44.3076 55.3002 44.6076 53.8002C44.5076 53.8002 44.4076 53.7001 44.2076 53.7001C44.0076 54.0001 43.8076 54.3001 43.7076 54.7001C43.3076 55.9001 42.7076 57.1002 42.7076 58.3002C42.7076 60.2002 41.1076 60.5002 40.1076 61.5002C39.8076 61.8002 39.5076 62.0001 39.0076 62.4001C38.5076 60.7001 38.8076 59.2001 39.5076 57.7001C39.4076 57.6001 39.3076 57.6001 39.1076 57.5001C38.9076 57.7001 38.5076 58.0002 38.4076 58.3002C38.2076 59.2002 37.9076 60.1002 38.0076 61.0002C38.3076 62.6002 37.7076 63.7001 36.5076 64.7001C35.9076 65.3001 35.4076 66.1002 34.9076 66.8002C35.0076 66.9002 35.2076 67.1001 35.3076 67.2001C35.7076 66.9001 36.0076 66.5001 36.4076 66.2001C37.2076 65.5001 38.0076 64.9001 38.8076 64.2001C39.3076 63.7001 39.8076 63.1001 40.3076 62.6001C41.1076 61.8001 42.0076 61.4001 43.2076 61.7001C44.5076 61.9001 45.8076 61.8001 46.9076 60.9001C47.4076 60.5001 47.7076 59.8002 48.1076 59.3002C48.2076 59.1002 48.1076 59.0001 47.9076 58.9001Z" fill="black"/>
<path fill-rule="evenodd" clip-rule="evenodd" d="M13.9076 100.1C13.9076 100.1 16.3076 99.5001 17.0076 99.7001C17.7076 99.9001 26.9076 105.2 27.4076 105.2C27.9076 105.2 27.6076 105.4 27.5076 104.5C27.4076 103.6 26.6076 102.9 26.5076 102.5C26.4076 102.2 27.4076 101.8 27.9076 101.8C28.3076 101.8 28.4076 101 28.0076 100.6C27.7076 100.3 23.0076 96.3002 22.7076 95.3002C22.4076 94.3002 19.3076 90.8001 17.5076 91.2001C15.7076 91.6001 12.9075 93.9001 12.8075 95.2001C12.9075 96.6001 13.1076 99.6001 13.9076 100.1Z" fill="url(#paint4_linear_57_92)"/>
<path fill-rule="evenodd" clip-rule="evenodd" d="M35.8076 87.1001C35.7076 88.8001 35.5076 90.5001 35.7076 92.2001C36.1076 95.5001 36.8076 98.7002 37.2076 102C37.5076 105.1 37.0076 108 35.1076 110.6C34.4076 111.5 33.8076 112.5 33.5076 113.6C32.8076 115.8 32.3076 118.1 31.6076 120.4C31.2076 121.7 30.7076 123.2 28.8076 123.1C28.6076 123.1 28.3076 123.4 28.1076 123.7C27.6076 124.5 27.1076 125.4 26.7076 126.3C24.8076 129.8 22.2076 132.9 19.0076 135.3C16.6076 137.2 15.0076 136.9 13.0076 135.5C10.6076 133.8 11.3076 128.2 13.5076 126.9C9.50756 124 8.70756 121.1 9.60756 118.2C8.10756 118.3 6.70756 118.4 5.10756 118.5C5.30756 119.7 4.90755 120.7 3.80755 121.4C2.90755 121.9 1.10756 121.9 0.407558 121.1C-0.492442 120.1 0.307552 119.3 0.807552 118.6C1.60755 117.5 2.50755 116.7 4.20755 117C5.80755 117.3 7.50755 117.1 9.20755 117.2C10.4076 117.3 10.6076 116.4 10.9076 115.6C10.1076 115.6 9.30756 115.7 8.60756 115.6C7.60756 115.5 6.90756 114.6 6.10756 114.4C5.40756 114.2 4.40756 115.3 3.50756 115.4C2.90756 115.5 2.00756 115.1 1.60756 114.6C1.00756 113.7 1.50755 112.2 2.30755 111.8C3.40755 111.2 5.60756 111.7 6.10756 112.6C7.20756 114.6 9.90756 115.1 11.4076 113.5C11.8076 113.1 11.8076 112 11.6076 111.3C11.5076 110.9 10.9076 110.6 10.5076 110.3C9.60756 109.8 8.60755 109.5 7.70755 109C6.90755 108.5 6.40756 108.1 5.50756 108.9C4.80756 109.6 3.60755 110.1 2.70755 109.2C2.20755 108.7 2.10756 107.8 2.10756 107C2.10756 106.6 2.60755 106.1 2.80755 105.7C3.20755 105.1 3.60756 104.3 4.40756 104.6C5.20756 104.9 6.10756 105.4 6.40756 106.1C7.20756 108 9.00756 108.2 10.4076 109.2C10.4076 108.8 10.3076 108.6 10.3076 108.4C10.2076 107.2 9.70756 105.8 10.1076 104.8C10.6076 103.3 11.8076 102 12.7076 100.5C12.8076 100.3 13.0076 100 13.0076 99.7001C12.9076 98.7001 12.5076 97.6001 12.5076 96.6001C12.4076 93.8001 15.0076 91.0001 17.8076 91.1001C19.8076 91.1001 21.4076 91.9001 22.5076 93.7001C24.0076 96.2001 25.6076 98.7001 28.2076 100.2C28.3076 100.3 28.8076 101.4 28.8076 101.6C28.9076 102 27.7076 101 27.5076 100.8C26.2076 99.7002 24.9076 98.5002 23.8076 97.3002C22.8076 96.2002 22.1076 94.8001 21.2076 93.6001C20.2076 92.4001 18.8076 92.0001 17.4076 92.4001C15.8076 92.9001 13.8076 93.3001 13.7076 95.6001C13.6076 96.4001 13.6076 97.2001 13.7076 97.9001C14.0076 99.7001 14.0076 99.6002 15.8076 99.5002C16.6076 99.4002 17.6076 99.4001 18.3076 99.7001C20.4076 100.8 22.4076 102 24.5076 103.2C25.5076 103.8 26.6076 104.4 27.6076 104.9C27.7076 104.8 27.8076 104.7 27.8076 104.6C27.3076 104.2 26.8076 103.8 26.3076 103.3C26.0076 103 25.8076 102.5 25.5076 102.1C25.9076 101.9 26.4076 101.5 26.8076 101.5C28.4076 101.3 29.6076 101.9 30.5076 103.2C31.3076 104.3 32.0076 105.5 32.9076 106.8C33.1076 106.2 33.4076 105.9 33.4076 105.5C33.5076 101.6 33.6076 97.6001 32.7076 93.7001C32.0076 90.8001 31.3076 87.9002 31.9076 84.8002C32.0076 84.5002 32.0076 84.2002 31.9076 84.0002C31.8076 83.7002 31.6076 83.4002 31.4076 83.3002C31.3076 83.2002 31.0076 83.5001 30.8076 83.7001C28.8076 85.3001 26.6076 86.2002 24.1076 85.5002C22.0076 84.9002 20.5076 83.3001 19.2076 81.7001C17.9076 80.0001 17.0076 78.0002 15.8076 76.3002C14.4076 74.2002 12.8076 72.2002 10.2076 71.3002C10.0076 71.2002 9.60755 70.8001 9.70755 70.6001C9.80755 70.3001 10.1076 69.9002 10.4076 69.8002C13.2076 69.4002 15.9076 68.9001 18.7076 68.7001C19.8076 68.6001 21.0076 68.9001 22.1076 69.2001C25.1076 70.1001 27.4076 72.0002 29.3076 74.5002C30.1076 75.5002 31.0076 76.3001 31.9076 77.1001C32.0076 77.0001 32.2076 77.0001 32.3076 76.9001C32.2076 74.3001 32.7076 71.6001 31.6076 69.1001C30.1076 65.6001 28.1076 62.2002 27.9076 58.3002C27.7076 55.2002 27.7076 52.0002 27.8076 48.9002C27.9076 47.2002 27.8076 47.0001 26.3076 46.1001C24.9076 45.3001 23.5076 44.4002 22.7076 42.9002C21.2076 40.1002 20.8076 37.1001 20.7076 34.0001C20.6076 32.0001 20.4076 30.0001 20.1076 28.0001C19.8076 25.9001 19.0076 23.9001 17.1076 22.7001C17.3076 21.8001 17.7076 21.6001 18.5076 22.0001C19.1076 22.3001 19.7076 22.6001 20.3076 22.6001C22.3076 22.8001 24.3076 22.9001 25.9076 24.2001C27.8076 25.7001 29.9076 27.0002 31.2076 28.8002C33.2076 31.5002 34.0076 34.9002 34.3076 38.3002C34.6076 41.1002 34.5076 43.8001 32.4076 46.0001C31.8076 46.7001 31.3076 47.7001 31.0076 48.7001C30.8076 49.6001 30.8076 50.5002 30.9076 51.4002C31.3076 54.0002 31.8076 56.6002 32.3076 59.3002C32.5076 60.2002 32.8076 61.1002 33.1076 62.0002C33.3076 62.0002 33.4076 62.0001 33.6076 61.9001C33.6076 61.2001 33.6076 60.4001 33.7076 59.7001C34.1076 56.7001 35.3076 54.2001 37.8076 52.5001C38.5076 52.0001 38.9076 51.6002 38.9076 50.8002C38.9076 47.1002 40.5076 44.0001 42.5076 41.0001C43.4076 39.6001 44.3076 38.2001 45.4076 36.5001C42.9076 37.5001 42.3076 37.6001 41.1076 36.7001C40.3076 36.1001 39.5076 35.4002 38.4076 35.8002C38.2076 35.9002 37.9076 35.7001 37.7076 35.6001C36.5076 34.7001 36.3076 31.7001 37.4076 30.6001C38.2076 29.7001 40.0076 30.1002 40.3076 31.3002C40.5076 32.1002 40.6076 33.0002 40.5076 33.8002C40.3076 34.8002 40.8076 35.3001 41.5076 35.7001C42.3076 36.2001 43.2076 36.9001 44.2076 36.1001C44.6076 35.8001 45.1076 35.8001 45.6076 35.7001C45.7076 35.8001 45.8076 35.9001 45.9076 36.0001C46.3076 34.3001 47.0076 32.7001 47.0076 31.0001C47.0076 26.3001 45.5076 22.1001 42.3076 18.5001C41.7076 17.8001 41.4076 17.9002 40.6076 18.3002C39.5076 18.9002 38.2076 19.3001 36.9076 19.5001C36.0076 19.7001 35.0076 19.5002 34.3076 19.4002C33.9076 20.2002 33.7076 21.2002 33.2076 21.3002C32.6076 21.5002 31.5076 21.3002 31.0076 20.8002C30.3076 20.3002 29.6076 19.3001 29.6076 18.6001C29.6076 17.7001 30.3076 16.6002 30.9076 15.9002C31.5076 15.3002 32.9076 16.1001 33.5076 17.0001C33.7076 17.3001 33.9076 17.6002 34.2076 17.8002C35.8076 18.8002 39.3076 18.3002 40.7076 16.9002C40.6076 16.8002 40.6076 16.6001 40.5076 16.5001C38.1076 13.7001 35.2076 11.6002 32.0076 9.80016C29.2076 8.20016 26.5076 6.50016 23.5076 5.40016C22.9076 5.20016 22.1076 4.40016 21.9076 3.80016C21.4076 2.30016 23.3076 0.000137329 24.9076 0.000137329C25.3076 0.000137329 25.9076 0.200137 26.2076 0.500137C27.5076 1.60014 27.7076 3.20016 26.7076 5.40016C30.3076 7.50016 33.8076 9.60015 37.3076 11.7001C38.9076 9.90015 38.6076 8.00016 37.9076 6.30016C37.3076 5.00016 37.7076 4.30016 38.3076 3.30016C38.9076 2.40016 39.6076 2.30015 40.5076 2.70015C41.9076 3.30015 42.6076 5.90015 41.8076 7.20015C41.7076 7.40015 41.4076 7.60014 41.3076 7.60014C39.4076 7.50014 39.4076 8.90015 39.1076 10.2001C39.0076 10.6001 38.9076 11.0002 38.7076 11.3002C38.1076 12.2002 38.4076 12.7002 39.1076 13.3002C41.0076 15.3002 42.9076 17.4001 44.6076 19.6001C45.5076 20.8001 47.2076 21.3001 48.3076 20.2001C49.9076 18.7001 51.1076 16.9001 50.8076 14.5001C50.7076 13.8001 50.7076 13.1001 50.7076 12.5001C50.7076 10.4001 52.4076 9.30016 54.1076 10.3002C54.6076 10.6002 55.0076 11.4001 55.2076 12.1001C55.7076 13.7001 54.6076 14.8001 53.1076 14.2001C52.2076 13.9001 51.9076 14.1001 51.8076 15.0001C51.7076 17.1001 50.8076 19.0001 49.2076 20.5001C48.4076 21.3001 47.2076 21.6001 46.1076 22.2001C46.3076 22.9001 46.6076 23.7001 46.9076 24.6001C47.2076 25.5001 47.4076 26.4002 47.7076 27.3002C47.8076 27.6002 48.0076 28.0001 48.3076 28.2001C49.9076 29.2001 51.5076 28.6001 53.0076 28.2001C54.1076 27.9001 54.2076 27.0001 54.5076 26.1001C54.8076 25.3001 55.4076 24.4001 56.1076 24.1001C57.0076 23.7001 58.7076 24.8002 58.9076 25.8002C59.2076 27.3002 58.6076 28.3002 57.3076 28.8002C56.6076 29.1002 55.9076 29.3001 55.2076 28.7001C55.1076 28.6001 54.7076 28.5001 54.6076 28.6001C52.6076 29.8001 50.5076 30.4002 48.1076 29.4002C48.2076 33.8002 46.3076 37.3001 43.9076 40.6001C42.3076 42.8001 40.9076 45.1001 40.1076 47.7001C39.7076 49.0001 39.7076 50.4002 39.5076 51.9002C41.1076 51.4002 42.5076 51.1001 43.8076 50.5001C47.7076 48.7001 50.6076 45.9001 51.5076 41.6001C51.6076 41.3001 51.9076 41.1002 52.1076 40.9002C52.3076 41.1002 52.6076 41.3001 52.7076 41.6001C53.3076 43.9001 54.1076 46.2001 54.4076 48.5001C55.4076 55.2001 53.3076 60.9002 47.8076 65.0002C45.2076 66.9002 42.2076 68.3001 39.4076 70.1001C36.6076 71.9001 35.3076 74.6001 35.4076 77.9001C35.4076 78.7001 35.8076 79.3001 36.6076 79.6001C37.8076 79.9001 39.0076 80.4001 40.3076 80.6001C43.3076 81.1001 46.0076 82.1001 48.2076 84.1001C51.3076 86.9001 53.3076 90.3002 54.3076 94.3002C55.1076 97.4002 56.3076 100.4 58.9076 102.6C59.1076 102.8 59.1076 103.3 59.0076 103.5C58.9076 103.6 58.4076 103.7 58.2076 103.6C57.5076 103.3 56.8076 103 56.2076 102.6C53.5076 100.8 50.8076 99.4002 47.4076 99.3002C46.1076 99.3002 44.8076 98.8001 43.7076 98.2001C40.9076 96.9001 39.9076 93.9002 38.4076 91.5002C37.5076 90.1002 36.8076 88.5002 36.0076 86.8002C36.0076 86.7002 35.8076 86.9001 35.8076 87.1001ZM15.4076 74.2001C16.7076 75.9001 17.8076 77.7001 18.9076 79.6001C20.1076 81.6001 21.9076 82.9001 23.8076 84.1001C25.3076 85.0001 28.8076 83.8002 30.2076 82.3002C30.6076 81.9002 30.9076 81.0002 31.7076 81.5002C32.4076 82.0002 33.3076 82.3001 32.9076 83.7001C32.1076 86.7001 32.6076 89.8002 33.3076 92.8002C34.4076 97.0002 34.3076 101.2 34.2076 105.5C34.2076 105.6 34.2076 105.8 34.1076 105.8C33.6076 106.4 33.2076 107 32.7076 107.6C32.2076 107.1 31.6076 106.7 31.2076 106.1C30.3076 104.7 29.6076 103.1 27.8076 102.5C27.6076 102.4 27.4076 102.5 27.1076 102.4C27.9076 103.6 28.7076 104.8 29.4076 105.9C30.9076 108 29.7076 110.5 27.7076 111.5C27.6076 111.6 27.4076 111.6 27.3076 111.7C27.0076 111.9 26.7076 112.2 26.2076 112.5C31.1076 114.2 30.6076 117.8 29.4076 121.7C29.6076 121.7 29.7076 121.7 29.9076 121.7C30.2076 121.1 30.6076 120.5 30.8076 119.9C31.4076 117.8 31.8076 115.6 32.4076 113.6C32.8076 112.3 33.5076 111.1 34.3076 110C36.5076 107.1 36.6076 103.8 36.0076 100.5C35.4076 96.8002 34.5076 93.2001 34.7076 89.4001C34.8076 87.6001 34.9076 85.8001 35.1076 84.1001C35.1076 83.8001 35.5076 83.6002 35.7076 83.3002C35.9076 83.5002 36.2076 83.7002 36.4076 84.0002C37.2076 85.6002 37.9076 87.2001 38.7076 88.7001C39.7076 90.6001 40.9076 92.5001 41.9076 94.4001C43.1076 96.7001 45.3076 97.3001 47.6076 97.7001C49.5076 98.0001 51.5076 98.6001 53.3076 99.2001C54.0076 99.4001 54.5076 100 55.2076 100.4C55.5076 100.6 55.9076 100.7 56.0076 100.7C55.2076 98.6001 54.3076 96.6002 53.6076 94.5002C51.9076 88.7002 48.8076 84.1001 42.8076 82.1001C40.8076 81.4001 38.6076 81.0002 36.6076 80.5002C35.1076 80.1002 34.6076 79.6001 34.4076 78.1001C33.8076 74.3001 35.7076 70.6001 39.1076 68.6001C41.8076 67.0001 44.7076 65.6002 47.2076 63.8002C51.8076 60.4002 54.1076 55.7002 53.5076 49.8002C53.3076 47.6002 52.9076 45.5002 52.6076 43.3002C52.5076 43.2002 52.4076 43.2001 52.2076 43.1001C52.0076 43.3001 51.7076 43.6002 51.5076 43.9002C49.6076 48.1002 46.3076 50.7001 41.9076 52.1001C40.8076 52.4001 39.6076 52.8002 38.5076 53.3002C35.8076 54.7002 34.7076 57.1001 34.5076 59.9001C34.3076 62.1001 34.5076 64.4001 34.6076 66.7001C34.6076 66.9001 34.4076 67.1001 34.3076 67.2001C34.1076 67.0001 33.7076 66.9001 33.6076 66.7001C32.7076 64.1001 31.7076 61.6002 31.1076 59.0002C30.5076 56.2002 30.1076 53.4001 29.8076 50.5001C29.6076 48.7001 29.9076 47.0001 31.1076 45.5001C32.6076 43.7001 33.5076 41.6001 33.2076 39.1001C32.7076 35.3001 32.0076 31.5001 29.6076 28.5001C27.7076 26.1001 25.1076 24.3002 21.9076 23.8002C21.0076 23.7002 20.2076 23.5002 19.2076 23.3002C19.7076 24.6002 20.2076 25.7002 20.5076 26.8002C20.9076 28.7002 21.2076 30.7001 21.3076 32.7001C21.4076 35.8001 21.7076 38.9002 23.0076 41.8002C23.7076 43.3002 25.1076 44.2001 26.4076 45.0001C28.2076 46.0001 28.6076 46.4001 28.4076 48.5001C28.0076 52.4001 27.9076 56.2001 28.7076 60.1001C29.0076 61.6001 29.6076 63.0002 30.2076 64.5002C30.9076 66.1002 31.9076 67.6001 32.5076 69.2001C32.9076 70.4001 32.8076 71.7002 32.9076 73.0002C33.0076 74.7002 33.0076 76.5002 33.0076 78.3002C33.0076 78.5002 32.8076 79.0002 32.7076 79.0002C32.4076 79.1002 31.9076 79.0002 31.7076 78.8002C30.3076 77.5002 29.0076 76.3001 27.7076 74.9001C25.7076 72.6001 23.4076 70.5002 20.3076 70.0002C18.7076 69.7002 17.1076 70.0001 15.4076 70.2001C14.2076 70.3001 13.1076 70.6002 11.8076 70.8002C13.2076 71.7002 14.4076 72.8001 15.4076 74.2001ZM14.4076 100.9C14.2076 101 14.0076 101 13.9076 101.1C13.4076 101.4 12.9076 101.5 12.5076 101.9C12.1076 102.2 12.0076 102.8 11.7076 103.2C10.2076 105.1 10.6076 107.1 11.4076 109.1C11.8076 110 12.0076 111 12.2076 112C12.7076 113.8 11.7076 115.2 10.9076 116.7C10.5076 117.4 10.3076 118.1 9.90756 118.8C8.70756 121.1 12.3076 126 15.4076 125.7C16.7076 125.6 18.1076 125.3 19.2076 124.7C21.1076 123.7 22.9076 122.7 24.5076 121.3C26.2076 119.8 27.9076 118 28.2076 115.5C28.2076 115.1 27.6076 114.3 27.1076 114.1C26.1076 113.8 25.1076 113.9 24.1076 113.8C23.7076 113.7 23.3076 113.6 22.9076 113.5C23.2076 113.1 23.3076 112.6 23.7076 112.4C24.9076 111.7 26.1076 111.2 27.2076 110.4C29.6076 108.9 29.4076 107.1 26.9076 105.7C24.4076 104.3 22.0076 102.8 19.5076 101.4C18.4076 100.8 17.3076 100.5 16.0076 100C15.6076 100.4 15.0076 100.6 14.4076 100.9ZM21.8076 124.7C19.7076 125.9 17.7076 127.1 15.2076 127.2C14.0076 127.2 12.3076 128.5 12.2076 130.1C12.1076 131.8 12.0076 133.4 13.5076 134.7C14.5076 135.6 15.6076 135.9 16.6076 135.2C18.1076 134.3 19.7076 133.3 20.9076 132C22.6076 130.2 24.1076 128.2 25.4076 126.1C26.7076 124 27.6076 121.7 28.6076 119.5C28.8076 119 28.8076 118.4 28.9076 117.8C28.8076 117.8 28.7076 117.7 28.5076 117.7C27.1076 120.7 24.8076 123 21.8076 124.7ZM25.2076 0.800156C24.5076 0.700156 23.1076 2.00016 23.1076 2.80016C23.1076 3.50016 24.2076 4.30016 25.1076 4.30016C25.8076 4.30016 26.4076 3.70015 26.4076 2.70015C26.3076 2.10015 26.3076 1.10016 25.2076 0.800156ZM31.6076 16.8002C31.1076 17.0002 30.7076 17.7002 30.6076 18.3002C30.4076 19.0002 31.7076 20.1001 32.4076 20.0001C32.7076 20.0001 32.9076 19.7001 33.0076 19.6001C33.0076 17.7001 32.3076 16.5002 31.6076 16.8002ZM41.3076 5.40016C41.5076 4.60016 40.5076 3.20014 40.0076 3.50014C39.5076 3.70014 38.9076 4.40016 38.8076 4.90016C38.7076 5.70016 39.3076 6.40014 40.6076 6.50014C40.8076 6.20014 41.2076 5.80016 41.3076 5.40016ZM57.9076 26.4002C58.1076 25.6002 57.7076 25.1002 56.9076 24.9002C55.0076 24.6002 55.8075 26.5002 54.8075 27.2002C56.6075 27.7002 57.7076 27.3002 57.9076 26.4002ZM38.6076 30.9002C38.2076 31.3002 37.6076 31.6002 37.5076 32.1002C37.3076 33.1002 38.0076 34.3002 38.6076 34.1002C39.1076 33.9002 39.4076 33.2002 40.1076 32.4002C39.5076 31.8002 39.0076 31.4002 38.6076 30.9002ZM4.10756 105.7C3.50756 106.1 3.10755 106.8 2.70755 107.4C2.60755 107.6 3.40756 108.4 3.40756 108.3C4.10756 108 4.80755 107.5 5.80755 106.8C5.00755 106.3 4.20756 105.6 4.10756 105.7ZM3.90756 119.2C4.00756 118.2 3.40756 117.7 2.50756 118.2C1.90756 118.6 1.40755 119.2 0.807552 119.8C2.30755 120.8 3.70756 120.5 3.90756 119.2ZM54.2075 12.6001C54.2075 12.1001 54.3076 11.4001 54.0076 11.2001C53.6076 10.9001 52.8076 10.7002 52.4076 10.9002C52.0076 11.1002 51.8075 11.8001 51.3075 12.5001C52.6075 12.6001 53.4075 12.6001 54.2075 12.6001ZM2.60756 112.8C2.40756 112.8 2.10756 113.2 2.10756 113.4C2.10756 113.6 2.40756 114.1 2.60756 114C3.30756 114 4.00755 113.8 4.70755 113.7C4.70755 113.5 4.70755 113.2 4.70755 113C4.00755 112.9 3.30756 112.8 2.60756 112.8Z" fill="black"/>
<path fill-rule="evenodd" clip-rule="evenodd" d="M15.5076 69.7001C17.1076 69.6001 18.8076 69.2002 20.4076 69.5002C23.5076 70.0002 25.8075 72.1001 27.8075 74.4001C29.0075 75.8001 30.4075 77.1002 31.8075 78.3002C32.0075 78.5002 32.5075 78.5002 32.8075 78.5002C32.9075 78.5002 33.1076 78.0002 33.1076 77.8002C33.1076 76.0002 33.1076 74.3002 33.0076 72.5002C32.9076 71.2002 33.0076 69.9001 32.6076 68.7001C32.0076 67.1001 31.0075 65.6002 30.3075 64.0002C29.7075 62.6002 29.1075 61.1001 28.8075 59.6001C28.0075 55.8001 28.1076 51.9001 28.5076 48.0001C28.7076 46.0001 28.3076 45.5001 26.5076 44.5001C25.1076 43.7001 23.8076 42.9002 23.1076 41.3002C21.8076 38.4002 21.5076 35.4001 21.4076 32.2001C21.3076 30.2001 21.0076 28.2002 20.6076 26.3002C20.4076 25.2002 19.8075 24.1002 19.3075 22.8002C20.3075 23.0002 21.1076 23.1002 22.0076 23.3002C25.2076 23.8002 27.7076 25.5001 29.7076 28.0001C32.1076 31.1001 32.8075 34.8001 33.3075 38.6001C33.6075 41.1001 32.7076 43.1001 31.2076 45.0001C30.0076 46.5001 29.7076 48.2001 29.9076 50.0001C30.2076 52.8001 30.5076 55.7002 31.2076 58.5002C31.8076 61.1002 32.8076 63.7001 33.7076 66.2001C33.8076 66.4001 34.2076 66.5001 34.4076 66.7001C34.5076 66.5001 34.7076 66.3001 34.7076 66.2001C34.7076 63.9001 34.5076 61.7001 34.6076 59.4001C34.8076 56.6001 36.0076 54.2002 38.6076 52.8002C39.7076 52.3002 40.8076 52.0001 42.0076 51.6001C46.4076 50.3001 49.7076 47.7002 51.6076 43.4002C51.7076 43.1002 52.0075 42.9001 52.3075 42.6001C52.4075 42.7001 52.5076 42.7002 52.7076 42.8002C53.0076 45.0002 53.4076 47.1002 53.6076 49.3002C54.2076 55.2002 51.9075 59.9002 47.3075 63.3002C44.8075 65.2002 41.9076 66.5001 39.2076 68.1001C35.8075 70.1001 33.9076 73.9001 34.5076 77.6001C34.7076 79.1001 35.2076 79.6002 36.7076 80.0002C38.8075 80.5002 40.9076 80.9001 42.9076 81.6001C48.9076 83.6001 51.9076 88.3002 53.7076 94.0002C54.3076 96.1002 55.3076 98.2001 56.1076 100.2C56.0076 100.2 55.6075 100.1 55.3075 99.9001C54.7075 99.5001 54.1076 98.9001 53.4076 98.7001C51.5076 98.1001 49.6076 97.5001 47.7076 97.2001C45.3075 96.8001 43.2076 96.2001 42.0076 93.9001C41.0076 92.0001 39.8075 90.1001 38.8075 88.2001C38.0075 86.7001 37.3076 85.1002 36.5076 83.5002C36.4076 83.2002 36.1075 83.1002 35.8075 82.8002C35.6075 83.1002 35.2076 83.3001 35.2076 83.6001C35.0076 85.4001 34.9075 87.2001 34.8075 88.9001C34.6075 92.7001 35.5076 96.3002 36.1076 100C36.7076 103.3 36.5076 106.6 34.4076 109.5C33.6076 110.6 32.9076 111.8 32.5076 113.1C31.8076 115.2 31.4076 117.3 30.9076 119.4C30.7076 120 30.3076 120.6 30.0076 121.2C29.8076 121.2 29.7076 121.2 29.5076 121.2C30.7076 117.3 31.2075 113.7 26.3075 112C26.7075 111.7 27.0076 111.4 27.4076 111.2C27.5076 111.1 27.7075 111 27.8075 111C29.9075 110 31.0076 107.5 29.5076 105.4C28.7076 104.3 28.0076 103.2 27.2076 101.9C27.5076 101.9 27.7076 101.9 27.9076 102C29.7076 102.6 30.4075 104.2 31.3075 105.6C31.7075 106.2 32.3075 106.6 32.8075 107.1C33.3075 106.5 33.8076 105.9 34.2076 105.3C34.3076 105.2 34.3075 105.1 34.3075 105C34.4075 100.7 34.5076 96.5002 33.4076 92.3002C32.6076 89.3002 32.2076 86.2001 33.0076 83.2001C33.4076 81.8001 32.5075 81.5002 31.8075 81.0002C31.0075 80.5002 30.7075 81.4002 30.3075 81.8002C28.9075 83.4002 25.3076 84.5001 23.9076 83.6001C22.0076 82.4001 20.2076 81.1001 19.0076 79.1001C17.9076 77.3001 16.8076 75.4001 15.5076 73.7001C14.5076 72.4001 13.2076 71.2002 11.9076 69.8002C13.1076 70.0002 14.3076 69.8001 15.5076 69.7001ZM41.4076 89.0002C43.2076 90.0002 43.3076 90.2001 43.0076 91.9001C42.8076 93.6001 44.0075 94.6002 44.8075 95.8002C44.8075 95.9002 45.2075 95.9002 45.3075 95.8002C45.4075 95.7002 45.4076 95.4002 45.4076 95.3002C45.1076 94.9002 44.8076 94.5002 44.5076 94.0002C44.1076 93.3002 43.9076 92.5001 43.6076 91.7001C43.8076 91.6001 43.9076 91.5002 44.1076 91.3002C45.4076 92.1002 46.6076 92.9002 48.0076 93.8002C48.0076 92.2002 46.5076 92.0002 45.9076 90.8002C47.0076 91.0002 47.9076 91.1002 48.9076 91.3002C48.9076 91.1002 49.0076 90.9002 49.0076 90.8002C48.1076 90.5002 47.2075 90.2001 46.3075 90.1001C44.8075 89.8001 43.3076 89.4001 42.2076 87.9001C44.1076 87.7001 45.9076 87.4001 47.7076 88.1001C47.4076 87.2001 46.7075 86.7001 45.8075 86.7001C44.9075 86.6001 44.0076 86.6001 43.2076 86.7001C41.5076 86.9001 40.4076 85.9001 39.5076 84.7001C39.1076 84.1001 38.7076 83.4002 38.2076 82.8002C38.0076 82.6002 37.5076 82.5001 37.2076 82.4001C37.2076 82.8001 37.1075 83.2002 37.3075 83.5002C38.1075 84.7002 39.0076 86.0001 40.0076 87.1001C40.8076 88.1001 40.7075 89.2001 40.8075 90.4001C40.8075 90.8001 41.0076 91.1002 41.1076 91.5002C41.3076 91.4002 41.4076 91.4002 41.6076 91.3002C41.5076 90.5002 41.5076 89.8002 41.4076 89.0002ZM43.2076 60.6001C44.1076 59.9001 44.8076 59.2001 45.5076 58.6001C46.6076 57.7001 47.6075 56.7001 47.8075 55.1001C47.8075 54.7001 48.3076 54.3002 48.4076 53.8002C48.5076 53.6002 48.4076 53.2001 48.2076 53.0001C48.1076 52.9001 47.7076 52.8002 47.6076 52.8002C47.4076 53.0002 47.2076 53.3001 47.2076 53.5001C47.1076 55.6001 45.8075 57.1002 44.3075 58.3002C44.2075 58.4002 43.9076 58.3002 43.7076 58.3002C44.0076 56.8002 44.3076 55.3002 44.6076 53.8002C44.5076 53.8002 44.4076 53.7001 44.2076 53.7001C44.0076 54.0001 43.8076 54.3001 43.7076 54.7001C43.3076 55.9001 42.7076 57.1002 42.7076 58.3002C42.7076 60.2002 41.1076 60.5002 40.1076 61.5002C39.8076 61.8002 39.5076 62.0001 39.0076 62.4001C38.5076 60.7001 38.8076 59.2001 39.5076 57.7001C39.4076 57.6001 39.3076 57.6001 39.1076 57.5001C38.9076 57.7001 38.5076 58.0002 38.4076 58.3002C38.2076 59.2002 37.9076 60.1002 38.0076 61.0002C38.3076 62.6002 37.7076 63.7001 36.5076 64.7001C35.9076 65.3001 35.4076 66.1002 34.9076 66.8002C35.0076 66.9002 35.2076 67.1001 35.3076 67.2001C35.7076 66.9001 36.0076 66.5001 36.4076 66.2001C37.2076 65.5001 38.0076 64.9001 38.8076 64.2001C39.3076 63.7001 39.8076 63.1001 40.3076 62.6001C41.1076 61.8001 42.0076 61.4001 43.2076 61.7001C44.5076 61.9001 45.8076 61.8001 46.9076 60.9001C47.4076 60.5001 47.7076 59.8002 48.1076 59.3002C48.0076 59.2002 47.8076 59.1002 47.7076 59.0002C46.8076 60.6002 45.4076 61.3001 43.2076 60.6001ZM28.4076 42.4002C28.3076 42.0002 28.1076 41.5002 28.2076 41.3002C29.2076 39.7002 29.3076 37.9001 28.9076 36.1001C28.5076 37.6001 28.7076 39.3001 27.6076 40.7001C26.6076 38.8001 26.3075 37.1001 26.8075 35.2001C27.0075 34.4001 27.2075 33.7002 27.3075 32.9002C27.4075 32.5002 27.2076 32.2002 27.1076 31.8002C27.0076 31.8002 26.9075 31.8002 26.8075 31.8002C26.8075 32.1002 26.7076 32.5002 26.7076 32.8002C26.6076 32.9002 26.5076 33.0001 26.4076 33.0001C26.3076 32.8001 26.3076 32.6002 26.2076 32.4002C25.9076 31.0002 25.9076 29.5001 25.4076 28.1001C25.0076 27.0001 24.1076 26.0001 23.4076 25.0001C23.4076 24.9001 22.7076 25.1001 22.7076 25.2001C22.7076 25.6001 22.7076 26.2002 22.9076 26.3002C24.4076 27.2002 24.9076 28.7001 25.1076 30.2001C25.4076 32.6001 25.5076 35.1001 25.7076 37.6001C25.7076 37.7001 25.6076 37.9001 25.5076 38.1001C24.6076 37.3001 23.8076 36.6002 23.0076 35.9002C23.0076 36.1002 23.0076 36.6002 23.2076 36.8002C24.1076 37.9002 25.2076 38.9001 26.1076 40.1001C26.9076 41.2001 27.6075 42.5002 28.3075 43.8002C28.4075 44.0002 28.5076 44.3001 28.6076 44.6001C28.8076 44.5001 29.1075 44.3001 29.3075 44.2001C29.0075 43.6001 28.7076 43.1002 28.4076 42.4002ZM20.0076 78.4001C20.7076 78.8001 21.4076 79.1002 22.1076 79.3002C23.5076 79.9002 25.0076 80.4001 26.4076 80.9001C27.7076 81.3001 29.1076 80.5002 29.2076 79.3002C29.2076 79.1002 29.1076 79.0002 29.0076 78.5002C28.7076 78.9002 28.6076 79.2002 28.4076 79.3002C27.9076 79.6002 27.3075 79.9001 26.8075 79.9001C26.2075 79.8001 25.5075 79.6001 25.3075 78.6001C25.0075 77.0001 24.5076 75.4001 24.0076 73.9001C23.8076 74.0001 23.6076 74.0001 23.4076 74.1001C23.8076 75.4001 24.2076 76.7001 24.5076 78.1001C24.4076 78.2001 24.3076 78.2002 24.2076 78.3002C24.0076 78.0002 23.7076 77.8002 23.5076 77.5002C22.4076 76.1002 21.4075 74.7002 20.3075 73.3002C19.8075 72.6002 19.1075 72.5001 18.3075 72.7001C18.0075 72.8001 17.6076 72.7001 17.2076 72.7001C16.9076 72.7001 16.7076 72.9002 16.4076 73.0002C16.6076 73.2002 16.9076 73.7001 17.0076 73.6001C19.8076 73.3001 20.8076 75.4001 22.1076 77.2001C22.3076 77.5001 22.5075 77.9002 22.8075 78.3002C21.3075 78.9002 20.6076 77.1001 18.9076 77.4001C19.5076 77.8001 19.7076 78.2001 20.0076 78.4001Z" fill="url(#paint5_radial_57_92)"/>
<path fill-rule="evenodd" clip-rule="evenodd" d="M16.2076 100C15.6076 100.3 15.0076 100.6 14.4076 100.9C14.2076 101 14.0076 101 13.9076 101.1C13.4076 101.4 12.9076 101.5 12.5076 101.9C12.1076 102.2 12.0076 102.8 11.7076 103.2C10.2076 105.1 10.6076 107.1 11.4076 109.1C11.8076 110 12.0076 111 12.2076 112C12.7076 113.8 11.7076 115.2 10.9076 116.7C10.5076 117.4 10.3076 118.1 9.90756 118.8C8.70756 121.1 12.3076 126 15.4076 125.7C16.7076 125.6 18.1076 125.3 19.2076 124.7C21.1076 123.7 22.9076 122.7 24.5076 121.3C26.2076 119.8 27.9076 118 28.2076 115.5C28.2076 115.1 27.6076 114.3 27.1076 114.1C26.1076 113.8 25.1076 113.9 24.1076 113.8C23.7076 113.7 23.3076 113.6 22.9076 113.5C23.2076 113.1 23.3076 112.6 23.7076 112.4C24.9076 111.7 26.1076 111.2 27.2076 110.4C29.6076 108.9 29.4076 107.1 26.9076 105.7C24.4076 104.3 22.0076 102.8 19.5076 101.4C18.6076 100.9 17.4076 100.5 16.2076 100Z" fill="url(#paint6_linear_57_92)"/>
<path fill-rule="evenodd" clip-rule="evenodd" d="M28.7732 117.751C27.1732 120.851 24.8732 123.051 21.9732 124.751C19.8732 125.951 17.8732 127.151 15.3732 127.251C14.1732 127.251 12.4732 128.551 12.3732 130.151C12.2732 131.851 12.1732 133.451 13.6732 134.751C14.6732 135.651 15.7732 135.951 16.7732 135.251C18.2732 134.351 19.8732 133.351 21.0732 132.051C22.7732 130.251 24.2732 128.251 25.5732 126.151C26.8732 124.051 27.7732 121.751 28.7732 119.551C28.9732 119.051 28.9732 118.451 29.0732 117.851C28.9732 117.851 28.8732 117.851 28.7732 117.751Z" fill="url(#paint7_linear_57_92)"/>
<path fill-rule="evenodd" clip-rule="evenodd" d="M26.4076 2.70015C26.3076 2.10015 26.3076 1.10016 25.2076 0.800156C24.5076 0.700156 23.1076 2.00016 23.1076 2.80016C23.1076 3.50016 24.2076 4.30016 25.1076 4.30016C25.8076 4.30016 26.4076 3.70015 26.4076 2.70015Z" fill="#FBB040"/>
<path fill-rule="evenodd" clip-rule="evenodd" d="M33.1076 19.5001C33.0076 17.6001 32.4076 16.5002 31.7076 16.8002C31.2076 17.0002 30.8076 17.7002 30.7076 18.3002C30.5076 19.0002 31.8076 20.1001 32.5076 20.0001C32.7076 19.9001 32.9076 19.6001 33.1076 19.5001Z" fill="#FBB040"/>
<path fill-rule="evenodd" clip-rule="evenodd" d="M5.80755 106.9C5.00755 106.3 4.20755 105.6 4.00755 105.7C3.40755 106.1 3.00755 106.8 2.60755 107.4C2.50755 107.6 3.30755 108.4 3.30755 108.3C4.20755 108 4.80755 107.5 5.80755 106.9Z" fill="#FBB040"/>
<path fill-rule="evenodd" clip-rule="evenodd" d="M0.807552 119.8C2.30755 120.8 3.70756 120.5 3.90756 119.2C4.00756 118.2 3.40756 117.7 2.50756 118.2C1.90756 118.6 1.40755 119.2 0.807552 119.8Z" fill="#FBB040"/>
<path fill-rule="evenodd" clip-rule="evenodd" d="M4.70755 113C4.00755 112.9 3.30755 112.8 2.70755 112.8C2.50755 112.8 2.20755 113.2 2.20755 113.4C2.20755 113.6 2.50755 114.1 2.70755 114C3.40755 114 4.10755 113.8 4.80755 113.7C4.70755 113.5 4.70755 113.3 4.70755 113Z" fill="#FBB040"/>
<path fill-rule="evenodd" clip-rule="evenodd" d="M29.4076 44.3002C29.1076 43.7002 28.7076 43.1001 28.5076 42.5001C28.4076 42.1001 28.2075 41.6002 28.3075 41.4002C29.3075 39.8002 29.4076 38.0001 29.0076 36.2001C28.6076 37.7001 28.8076 39.4002 27.7076 40.8002C26.7076 38.9002 26.4076 37.2002 26.9076 35.3002C27.1076 34.5002 27.3076 33.8001 27.4076 33.0001C27.5076 32.6001 27.3076 32.3002 27.2076 31.9002C27.1076 31.9002 27.0076 31.9002 26.9076 31.9002C26.9076 32.2002 26.8075 32.6002 26.8075 32.9002C26.7075 33.0002 26.6076 33.1001 26.5076 33.1001C26.4076 32.9001 26.4075 32.7001 26.3075 32.5001C26.0075 31.1001 26.0076 29.6001 25.5076 28.2001C25.1076 27.1001 24.2076 26.1001 23.5076 25.1001C23.5076 25.0001 22.8075 25.2002 22.8075 25.3002C22.8075 25.7002 22.8076 26.3002 23.0076 26.4002C24.5076 27.3002 25.0076 28.8002 25.2076 30.3002C25.5076 32.7002 25.6075 35.2001 25.8075 37.7001C25.8075 37.8001 25.7076 38.0001 25.6076 38.2001C24.7076 37.4001 23.9076 36.7001 23.1076 36.0001C23.1076 36.2001 23.1075 36.7002 23.3075 36.9002C24.2075 38.0002 25.3076 39.0001 26.2076 40.2001C27.0076 41.3001 27.7076 42.6002 28.4076 43.9002C28.5076 44.1002 28.6076 44.4001 28.7076 44.7001C28.9076 44.6001 29.1076 44.4002 29.4076 44.3002Z" fill="black"/>
<path fill-rule="evenodd" clip-rule="evenodd" d="M19.1076 77.3002C19.5076 77.8002 19.7076 78.2001 20.1076 78.4001C20.8076 78.8001 21.5076 79.1002 22.2076 79.3002C23.6076 79.9002 25.1076 80.4001 26.5076 80.9001C27.8076 81.3001 29.2075 80.5002 29.3075 79.3002C29.3075 79.1002 29.2076 79.0001 29.1076 78.5001C28.8076 78.9001 28.7076 79.2002 28.5076 79.3002C28.0076 79.6002 27.4076 79.9001 26.9076 79.9001C26.3076 79.8001 25.6076 79.6001 25.4076 78.6001C25.1076 77.0001 24.6076 75.4001 24.1076 73.9001C23.9076 74.0001 23.7076 74.0001 23.5076 74.1001C23.9076 75.4001 24.3076 76.7001 24.6076 78.1001C24.5076 78.2001 24.4075 78.2002 24.3075 78.3002C24.1075 78.0002 23.8076 77.8001 23.6076 77.5001C22.5076 76.1001 21.5076 74.7002 20.4076 73.3002C19.9076 72.6002 19.2076 72.5001 18.4076 72.7001C18.1076 72.8001 17.7075 72.7001 17.3075 72.7001C17.0075 72.7001 16.8076 72.9001 16.5076 73.0001C16.7076 73.2001 17.0076 73.7001 17.1076 73.6001C19.9076 73.3001 20.9076 75.4001 22.2076 77.2001C22.4076 77.5001 22.6076 77.9002 22.9076 78.3002C21.5076 78.8002 20.8076 77.0002 19.1076 77.3002Z" fill="black"/>
<defs>
<linearGradient id="paint0_linear_57_92" x1="78.2366" y1="82.8681" x2="62.678" y2="82.1875" gradientUnits="userSpaceOnUse">
<stop offset="0.005618" stop-color="#FCE6F0"/>
<stop offset="0.4494" stop-color="#F9C9DE"/>
<stop offset="1" stop-color="#9572D0"/>
</linearGradient>
<radialGradient id="paint1_radial_57_92" cx="0" cy="0" r="1" gradientUnits="userSpaceOnUse" gradientTransform="translate(56.9719 108.205) rotate(0.601644) scale(38.2016 38.2016)">
<stop offset="0.005618" stop-color="#B1F377"/>
<stop offset="0.4494" stop-color="#B2D66B"/>
<stop offset="1" stop-color="#84944B"/>
</radialGradient>
<linearGradient id="paint2_linear_57_92" x1="80.9584" y1="67.9448" x2="62.2244" y2="67.1253" gradientUnits="userSpaceOnUse">
<stop offset="0.005618" stop-color="#FCE6F0"/>
<stop offset="0.4494" stop-color="#F9C9DE"/>
<stop offset="1" stop-color="#9572D0"/>
</linearGradient>
<linearGradient id="paint3_linear_57_92" x1="78.5948" y1="54.3558" x2="62.3694" y2="53.6461" gradientUnits="userSpaceOnUse">
<stop offset="0.005618" stop-color="#FCE6F0"/>
<stop offset="0.4494" stop-color="#F9C9DE"/>
<stop offset="1" stop-color="#9572D0"/>
</linearGradient>
<linearGradient id="paint4_linear_57_92" x1="12.8341" y1="97.7747" x2="28.3926" y2="98.4553" gradientUnits="userSpaceOnUse">
<stop offset="0.005618" stop-color="#FCE6F0"/>
<stop offset="0.4494" stop-color="#F9C9DE"/>
<stop offset="1" stop-color="#9572D0"/>
</linearGradient>
<radialGradient id="paint5_radial_57_92" cx="0" cy="0" r="1" gradientUnits="userSpaceOnUse" gradientTransform="translate(34.0988 72.438) rotate(-179.398) scale(38.2016 38.2016)">
<stop offset="0.005618" stop-color="#B1F377"/>
<stop offset="0.4494" stop-color="#B2D66B"/>
<stop offset="1" stop-color="#84944B"/>
</radialGradient>
<linearGradient id="paint6_linear_57_92" x1="10.1123" y1="112.698" x2="28.8463" y2="113.518" gradientUnits="userSpaceOnUse">
<stop offset="0.005618" stop-color="#FCE6F0"/>
<stop offset="0.4494" stop-color="#F9C9DE"/>
<stop offset="1" stop-color="#9572D0"/>
</linearGradient>
<linearGradient id="paint7_linear_57_92" x1="12.4759" y1="126.287" x2="28.7013" y2="126.997" gradientUnits="userSpaceOnUse">
<stop offset="0.005618" stop-color="#FCE6F0"/>
<stop offset="0.4494" stop-color="#F9C9DE"/>
<stop offset="1" stop-color="#9572D0"/>
</linearGradient>
</defs>
</svg>
